<?xml version="1.0" standalone="no"?>
<!DOCTYPE svg PUBLIC "-//W3C//DTD SVG 1.1//EN" "http://www.w3.org/Graphics/SVG/1.1/DTD/svg11.dtd" >
<svg xmlns="http://www.w3.org/2000/svg">
<metadata></metadata>
<defs>
<font id="solomon_sans_normalregular" horiz-adv-x="1163" >
<font-face units-per-em="2048" ascent="1536" descent="-512" />
<missing-glyph horiz-adv-x="526" />
<glyph unicode="&#xfb00;" horiz-adv-x="1247" d="M1194 1436v-142q-102 6 -157.5 -37.5t-55.5 -130.5v-106h205v-137h-205v-883h-160v883h-463v-883h-159v883h-103v137h103v106q0 166 103.5 247t268.5 63v-142q-102 6 -157.5 -37.5t-55.5 -130.5v-106h463v106q0 166 104 247t269 63z" />
<glyph unicode="&#xfb01;" horiz-adv-x="1067" d="M903 0h-162v891h-387v-891h-159v891h-103v147h103v88q0 166 103.5 247t268.5 63v-142q-102 6 -157.5 -37.5t-55.5 -130.5v-88h549v-1038zM905 1253v189h-166v-189h166z" />
<glyph unicode="&#xfb02;" horiz-adv-x="1101" d="M567 1436v-142q-102 6 -157.5 -37.5t-55.5 -130.5v-94h205v-147h-205v-885h-159v885h-103v147h103v94q0 166 103.5 247t268.5 63zM1057 -4v141q-96 -7 -131 33.5t-35 134.5v1139h-162v-1139q0 -170 84 -248t244 -61z" />
<glyph unicode="&#xfb03;" horiz-adv-x="1691" d="M969 887v-887h-160v887h-453v-887h-159v887h-103v137h103v102q0 166 103.5 247t268.5 63v-142q-102 6 -157.5 -37.5t-55.5 -130.5v-102h453v102q0 166 104 247t269 63v-142q-102 6 -157.5 -37.5t-55.5 -130.5v-102h561v-1024h-162v887h-399zM1532 1253v189h-166v-189h166 z" />
<glyph unicode="&#xfb04;" horiz-adv-x="1740" d="M1169 1024v-137h-200v-887h-160v887h-453v-887h-159v887h-103v137h103v102q0 166 103.5 247t268.5 63v-142q-102 6 -157.5 -37.5t-55.5 -130.5v-102h453v102q0 166 104 247t269 63v-142q-102 6 -157.5 -37.5t-55.5 -130.5v-102h200zM1696 -4v141q-96 -7 -131 33.5 t-35 134.5v1139h-162v-1139q0 -170 84 -248t244 -61z" />
<glyph unicode="fj" horiz-adv-x="1146" d="M977 1253v191h-166v-191h166zM606 -406v142q100 -6 155.5 37.5t55.5 130.5v987h-436v-891h-160v891h-102v147h102v88q0 166 104 247t269 63v-146q-102 6 -157.5 -35.5t-55.5 -128.5v-88h598v-1134q0 -165 -103.5 -245.5t-269.5 -64.5z" />
<glyph horiz-adv-x="0" />
<glyph horiz-adv-x="682" />
<glyph unicode=" "  horiz-adv-x="526" />
<glyph unicode="&#x09;" horiz-adv-x="526" />
<glyph unicode="&#xa0;" horiz-adv-x="526" />
<glyph unicode="!" horiz-adv-x="653" d="M412 348h-168l-11 1086h187zM420 0h-184v211h184v-211z" />
<glyph unicode="&#x22;" horiz-adv-x="720" d="M139 1061v395h162v-395h-162zM420 1061v395h162v-395h-162z" />
<glyph unicode="#" horiz-adv-x="1226" d="M1128 1016l-4 -156h-188l-45 -287h166l-4 -153h-187l-65 -418h-146l64 418h-260l-68 -418h-149l63 418h-186l4 153h207l43 287h-185l5 156h204l66 418h151l-63 -418h260l66 418h147l-63 -418h167zM786 860h-260l-43 -287h260z" />
<glyph unicode="$" horiz-adv-x="1150" d="M309 1069q-2 -38 7.5 -71t23.5 -55.5t41 -43.5t48 -32.5t57.5 -24.5t55 -18.5t54.5 -14.5q76 -19 132 -39t118.5 -56.5t101 -83t62.5 -119t20 -163.5q-4 -84 -37 -153.5t-87 -115t-120 -73t-141 -37.5v-186h-149v186q-128 18 -233 96t-154 207l133 70q40 -103 129 -165 t198 -62q129 -2 209.5 62t87.5 179q3 44 -6.5 82t-24.5 64.5t-44 50.5t-52.5 38t-62 29t-61.5 21.5t-62 17.5q-48 13 -84.5 25t-82 31.5t-78.5 41t-66 53.5t-53.5 69.5t-33 88t-10.5 109.5q4 161 104 260t247 121v187h149v-185q121 -18 217 -88.5t139 -185.5l-129 -64 q-38 91 -119.5 141t-174.5 52q-107 0 -184.5 -62.5t-84.5 -183.5z" />
<glyph unicode="%" horiz-adv-x="1728" d="M809 1110q0 -144 -103.5 -246t-248.5 -102t-249 102t-104 246q0 146 104 248t249 102t248.5 -102t103.5 -248zM1618 324q0 -144 -103.5 -246.5t-248.5 -102.5q-146 0 -250.5 102t-104.5 247q0 144 104 246t251 102q145 0 248.5 -102t103.5 -246zM1470 324q0 90 -59 154.5 t-145 64.5q-87 0 -147 -64.5t-60 -154.5t60 -152.5t147 -62.5q86 0 145 62.5t59 152.5zM1245 1520h176l-929 -1596h-175zM666 1110q0 91 -60 155t-149 64q-87 0 -148 -64t-61 -155q0 -90 61 -153.5t148 -63.5q88 0 148.5 63.5t60.5 153.5z" />
<glyph unicode="&#x26;" horiz-adv-x="1355" d="M664 776l278 -303q44 76 102 178l142 -73l-133 -232l256 -291h-215l-133 154q-87 -111 -184.5 -168t-227.5 -57q-184 0 -307 114.5t-123 302.5q0 62 16.5 115.5t40.5 92t65.5 77t76 63t88.5 58.5q-69 82 -108.5 156.5t-39.5 158.5q0 102 51.5 179.5t132.5 116t176 38.5 q132 0 230 -89t98 -224q0 -57 -16.5 -106.5t-41 -85t-64.5 -69.5t-75 -56.5t-85 -49.5zM854 328l-344 366q-48 -30 -80.5 -55t-69.5 -61.5t-56 -80t-19 -91.5q0 -117 80.5 -189t199.5 -72q155 0 289 183zM612 1300q-77 0 -130.5 -50t-53.5 -126q0 -55 35.5 -113.5 t93.5 -127.5q39 21 62 34t59 39t56 50t36 58.5t16 72.5q0 71 -50.5 117t-123.5 46z" />
<glyph unicode="'" horiz-adv-x="436" d="M137 1061v395h162v-395h-162z" />
<glyph unicode="(" horiz-adv-x="798" d="M322 721q0 -159 51 -319t152.5 -300.5t236.5 -220.5v-188q-273 144 -440.5 430t-167.5 598q0 313 167.5 599.5t440.5 430.5v-188q-135 -80 -236.5 -220.5t-152.5 -301.5t-51 -320z" />
<glyph unicode=")" horiz-adv-x="796" d="M475 721q0 159 -51.5 320t-153 301t-235.5 221v188q180 -95 318.5 -259t213 -364.5t74.5 -406.5q0 -205 -74.5 -405t-213 -364t-318.5 -259v188q134 81 235.5 221t153 300.5t51.5 318.5z" />
<glyph unicode="*" horiz-adv-x="962" d="M864 1102l-284 -88l180 -238l-119 -84l-170 244l-170 -244l-117 84l178 238l-282 88l45 135l278 -94l-2 295h144l-6 -295l280 94z" />
<glyph unicode="+" horiz-adv-x="1335" d="M168 594v162h430v418h158v-418h411v-162h-411v-422h-158v422h-430z" />
<glyph unicode="," horiz-adv-x="538" d="M55 -223l133 442h189l-168 -442h-154z" />
<glyph unicode="-" horiz-adv-x="937" d="M195 557v162h553v-162h-553z" />
<glyph unicode="." horiz-adv-x="540" d="M371 -4h-205v223h205v-223z" />
<glyph unicode="/" horiz-adv-x="864" d="M827 1593l-587 -1726h-174l589 1726h172z" />
<glyph unicode="0" horiz-adv-x="1251" d="M305 406q0 -126 96.5 -201.5t225.5 -75.5q82 0 153.5 31.5t118.5 96.5t47 149v628q0 85 -49 149.5t-123 95.5t-156 30t-152 -32.5t-115.5 -95t-45.5 -147.5v-628zM137 1034q0 102 40.5 185t108.5 135t152.5 79.5t177.5 28.5q75 1 147 -15t135.5 -50.5t111.5 -84.5 t76 -121.5t28 -156.5v-628q0 -183 -121 -297q-68 -65 -164.5 -99.5t-201.5 -34.5q-105 -2 -203.5 33t-167.5 101q-119 116 -119 297v628z" />
<glyph unicode="1" horiz-adv-x="667" d="M295 1276h-189v160h357v-1436h-168v1276z" />
<glyph unicode="2" horiz-adv-x="1165" d="M584 1296q-112 4 -196.5 -47.5t-125.5 -150.5l-139 65q59 149 182.5 226.5t282.5 72.5q196 -7 316.5 -125t123.5 -282q0 -177 -156 -350l-503 -551h669v-154h-878l-49 123l647 700q115 121 112 230q0 100 -77 169.5t-209 73.5z" />
<glyph unicode="3" horiz-adv-x="1144" d="M90 272l127 70q48 -98 142 -154.5t196 -56.5q115 0 204 77t89 208q0 125 -79 204.5t-191 79.5h-115v150h115q104 0 168.5 52.5t64.5 160.5q0 114 -74.5 177t-179.5 63q-89 0 -172 -47t-123 -130l-121 72q54 123 166.5 191.5t239.5 68.5q63 0 124.5 -15t117 -47.5t98 -78 t67.5 -111.5t25 -143q0 -90 -43.5 -168t-116.5 -111q197 -107 197 -370q-1 -102 -41.5 -187t-106.5 -139t-148.5 -83.5t-170.5 -29.5q-93 0 -181 32.5t-162.5 101t-115.5 163.5z" />
<glyph unicode="4" horiz-adv-x="1118" d="M909 1436v-1008h115v-156h-115v-272h-168v272h-575l-111 150l678 1014h176zM741 428l4 768l-491 -766z" />
<glyph unicode="5" horiz-adv-x="1191" d="M102 272l138 70q44 -93 142.5 -149t201.5 -56q80 0 145 29t105 77t61 107.5t20 122.5q0 84 -34.5 155t-110 118t-180.5 47q-103 0 -181.5 -17t-158.5 -63l-90 -4l110 725h717v-160h-579l-60 -371q116 45 246 45q96 -1 176.5 -28t137 -73t96 -106.5t58.5 -129t19 -140.5 q0 -93 -32.5 -180t-93 -157t-158 -112t-217.5 -42q-152 0 -282.5 75.5t-195.5 216.5z" />
<glyph unicode="6" horiz-adv-x="1234" d="M627 -20q-119 0 -215.5 42t-157 112t-93 157t-32.5 180q0 147 82 277l426 686h194l-305 -494q62 8 101 8q100 0 183.5 -27t140.5 -72.5t96.5 -107t58 -129.5t18.5 -141q0 -74 -19.5 -144.5t-60.5 -133.5t-99 -110.5t-140 -75t-178 -27.5zM627 793q-140 0 -235.5 -90.5 t-96.5 -229.5q0 -63 21.5 -122.5t62 -107.5t105 -77t143.5 -29q80 0 145 29t105 77t61 107.5t20 122.5q0 84 -36 155t-113 118t-182 47z" />
<glyph unicode="7" horiz-adv-x="1026" d="M772 1274h-690v164h846l55 -115l-690 -1323h-191z" />
<glyph unicode="8" horiz-adv-x="1202" d="M596 -29q-89 0 -171.5 29.5t-149 84t-107 140t-41.5 189.5q-1 118 51.5 209.5t147.5 152.5q-71 51 -106.5 128.5t-35.5 168.5t35 166t93.5 122.5t131.5 73t152 25.5q80 0 153 -25.5t131 -73t93 -122.5t35 -166q0 -88 -35 -167.5t-105 -129.5q95 -61 147.5 -152.5 t51.5 -209.5q-1 -138 -70.5 -241t-174.5 -152.5t-226 -49.5zM596 1305q-78 0 -135 -34t-82 -85t-24.5 -110.5t26.5 -110.5t82.5 -85t132.5 -34q77 0 134 34t83 85t26.5 110.5t-24.5 110.5t-82.5 85t-136.5 34zM596 702q-64 0 -118 -20t-88.5 -53.5t-59 -76.5t-30 -91 t-0.5 -96t29.5 -91t59 -76t88.5 -52.5t119 -18.5q66 1 121 21t90.5 53.5t60 76.5t30 90.5t0 95t-30.5 90.5t-60.5 76t-90.5 52.5t-120 19.5z" />
<glyph unicode="9" horiz-adv-x="1239" d="M612 1452q119 0 215.5 -42t157 -112t93 -157t32.5 -180q0 -147 -82 -277l-426 -686h-194l305 494q-70 -9 -101 -9q-124 0 -222 41t-156.5 109.5t-88.5 152t-30 175.5q0 74 19.5 144.5t60.5 133.5t99 110.5t140 75t178 27.5zM612 639q140 0 235.5 90t96.5 229 q0 63 -21.5 122.5t-62 107.5t-105 77t-143.5 29q-80 0 -145 -29t-105 -77t-61 -107.5t-20 -122.5q0 -62 21.5 -118.5t61.5 -101.5t104.5 -72t143.5 -27z" />
<glyph unicode=":" horiz-adv-x="618" d="M403 -4h-204v223h204v-223zM403 791h-204v223h204v-223z" />
<glyph unicode=";" horiz-adv-x="620" d="M403 791h-204v223h204v-223zM88 -246l133 443h189l-168 -443h-154z" />
<glyph unicode="&#x3c;" horiz-adv-x="1034" d="M905 1083v-184l-626 -313l626 -312v-178l-821 428v123z" />
<glyph unicode="=" horiz-adv-x="1300" d="M207 690v162h887v-162h-887zM207 291v162h887v-162h-887z" />
<glyph unicode="&#x3e;" horiz-adv-x="1032" d="M131 897v186l821 -436v-123l-821 -428v185l627 305z" />
<glyph unicode="?" horiz-adv-x="1085" d="M53 1270l19 22q67 87 173 132.5t224 45.5q90 0 173 -28t148.5 -80.5t105 -135.5t38.5 -184q-1 -182 -111 -299.5t-293 -150.5l-14 -295h-145l-13 424q104 1 198 41.5t153 115.5t57 166q-3 123 -92.5 198t-208.5 75q-83 0 -161.5 -38t-129.5 -101zM539 2h-179v191h179 v-191z" />
<glyph unicode="@" horiz-adv-x="1665" d="M1327 969l-4 6q-71 89 -186 137.5t-246 48.5q-108 0 -204 -35.5t-167 -96t-123 -140t-79 -169t-29 -181.5q-1 -87 17.5 -166t61 -150t105.5 -123.5t157 -83t210 -30.5q104 0 211 43l69 -131q-150 -58 -280 -58q-147 0 -267 39t-201 105t-136.5 156.5t-79.5 191t-23 209.5 q2 114 35 224.5t98 208.5t153.5 173t209.5 118.5t258 43.5q144 0 270.5 -46.5t216.5 -127t142.5 -192.5t52.5 -238q0 -121 -42 -232t-109 -189t-152.5 -124.5t-171.5 -46.5q-53 0 -90.5 30.5t-40.5 96.5q-36 -58 -101.5 -88.5t-136.5 -30.5q-115 0 -197 93.5t-82 211.5 q0 107 32.5 209.5t91 185.5t149.5 134t199 51q64 0 124.5 -38t71.5 -102l29 72l162 -6l-179 -553q-24 -70 -18 -90q7 -18 31 -19q59 0 123.5 66t107.5 169t43 200q0 155 -86 264zM602 430q0 -69 38 -112.5t101 -43.5q78 0 149.5 68.5t110.5 161.5t39 174t-34 127.5t-97 46.5 q-60 1 -112 -26t-87 -71.5t-60 -100.5t-36.5 -113.5t-11.5 -110.5z" />
<glyph unicode="A" horiz-adv-x="1294" d="M27 0l514 1444h207l520 -1444h-178l-166 459h-555l-162 -459h-180zM420 614h448l-223 652z" />
<glyph unicode="B" horiz-adv-x="1247" d="M375 840h262q126 0 196 67.5t70 159.5t-70 157.5t-196 65.5h-262v-450zM637 682h-262v-526h262q156 0 242 72t86 184q0 109 -86 189.5t-242 80.5zM1059 1063q0 -84 -42 -159.5t-124 -131.5q79 -39 132.5 -98t76.5 -124.5t22 -137.5q0 -106 -38.5 -186.5t-106.5 -129 t-154.5 -72.5t-189.5 -24h-428v1442h430q115 0 210.5 -44.5t153.5 -132t58 -202.5z" />
<glyph unicode="C" horiz-adv-x="1492" d="M1360 1243l-109 -113q-81 85 -188.5 131.5t-222.5 43.5q-134 -2 -242.5 -53t-177 -135t-105 -188t-36.5 -216q0 -89 23 -173t70 -158.5t112.5 -130t157.5 -88t198 -32.5q126 0 244 55t200 152l119 -98q-103 -124 -250 -194.5t-313 -70.5q-139 0 -258.5 41t-205 111.5 t-147 164.5t-91 201t-29.5 220t29.5 221t91 203t147 167t205 114t258.5 42q151 0 284.5 -57t235.5 -160z" />
<glyph unicode="D" horiz-adv-x="1484" d="M649 1444q137 1 254 -38t200.5 -107t143.5 -159t89.5 -193.5t31.5 -211.5q2 -111 -25 -217t-85.5 -200t-142.5 -165t-203.5 -112t-260.5 -41h-444v1444h442zM649 156q136 -2 245.5 46.5t176 131t100.5 185.5t31 214q-2 107 -38.5 205.5t-103 177t-172 125.5t-235.5 47 h-278v-1132h274z" />
<glyph unicode="E" horiz-adv-x="1087" d="M946 1442v-158h-598v-485h590v-158h-590l-2 -479h600v-160h-768v1440h768z" />
<glyph unicode="F" horiz-adv-x="1060" d="M975 1436v-158h-598v-487h590v-158h-590v-631h-170v1434h768z" />
<glyph unicode="G" horiz-adv-x="1681" d="M866 1460q171 0 328 -67.5t256 -186.5l-119 -102q-78 93 -206.5 147t-258.5 54q-106 0 -200.5 -33.5t-164 -91.5t-120.5 -133t-76.5 -160.5t-25.5 -171.5q0 -110 37.5 -213.5t106.5 -187.5t178 -134.5t241 -50.5q125 0 242.5 54t200 157t95.5 231h-641v156h828 q0 -154 -52.5 -292t-146 -240.5t-230 -162t-296.5 -59.5q-139 0 -258.5 41.5t-205 112.5t-146.5 165.5t-90.5 202t-30.5 220.5q0 112 32 220t97 202.5t154 167t211 114t261 41.5z" />
<glyph unicode="H" horiz-adv-x="1409" d="M1034 0v639h-657v-639h-170v1440h170v-649h657v649h170v-1440h-170z" />
<glyph unicode="I" horiz-adv-x="581" d="M207 0v1440h168v-1440h-168z" />
<glyph unicode="J" horiz-adv-x="1136" d="M90 342l156 33q22 -113 104 -176.5t182 -65.5q109 -2 187 69.5t78 200.5v887h-301v144h465v-1031q0 -103 -36 -186.5t-96 -135t-135 -79t-157 -27.5q-75 0 -146 23t-132 67t-105.5 115.5t-63.5 161.5z" />
<glyph unicode="K" horiz-adv-x="1290" d="M207 1444h170v-713l657 713h187l-576 -647l598 -797h-199l-512 686l-155 -156v-530h-170v1444z" />
<glyph unicode="L" horiz-adv-x="978" d="M930 158v-158h-723v1434h170v-1276h553z" />
<glyph unicode="M" horiz-adv-x="1742" d="M946 195h-145l-430 946v-1141h-164v1442h215l450 -1028l449 1028h217v-1442h-170v1130z" />
<glyph unicode="N" horiz-adv-x="1550" d="M1348 1434v-1434h-238l-735 1200v-1200h-168v1434h203l770 -1250v1250h168z" />
<glyph unicode="O" horiz-adv-x="1679" d="M840 1462q148 0 283.5 -60.5t233.5 -161.5t156 -238.5t58 -286.5q0 -150 -58 -287.5t-156 -237.5t-233.5 -159.5t-283.5 -59.5t-283.5 59.5t-233.5 159.5t-156 237.5t-58 287.5q0 149 58 286.5t156 238.5t233.5 161.5t283.5 60.5zM279 715q0 -140 48 -254.5t127.5 -185.5 t179 -109.5t206.5 -38.5t206.5 38.5t179 109.5t127.5 185.5t48 254.5q0 112 -31.5 209t-86 166.5t-126 119.5t-153 74t-166.5 23q-107 -1 -206 -40.5t-178.5 -112.5t-127 -187t-47.5 -252z" />
<glyph unicode="P" horiz-adv-x="1193" d="M375 524v-524h-168v1440h430q116 0 210.5 -40t152.5 -106t89 -147.5t31 -169.5t-31 -168.5t-89 -144.5t-151.5 -102t-209.5 -38h-264zM637 680q148 0 231.5 89.5t83.5 207.5q0 56 -20.5 109.5t-58.5 98t-99.5 72t-136.5 27.5h-262v-604h262z" />
<glyph unicode="Q" horiz-adv-x="1703" d="M963 475l112 113l225 -228q103 150 103 353q0 139 -48.5 254t-129 188t-180.5 112t-207 38q-107 0 -206 -39.5t-177.5 -112t-126 -187t-47.5 -253.5t48 -253.5t127.5 -186t179 -110t206.5 -38.5q197 0 350 119zM1411 250l135 -135l-112 -113l-134 135 q-202 -168 -458 -168q-198 0 -366.5 101.5t-266.5 272.5t-98 370q0 149 58 286.5t156 238.5t233.5 161.5t283.5 60.5t283.5 -60.5t233.5 -161.5t156 -238.5t58 -286.5q0 -261 -162 -463z" />
<glyph unicode="R" horiz-adv-x="1261" d="M719 586l461 -586h-211l-449 584h-143v-584h-170v1436h457q106 0 192 -24.5t153 -75t105 -134.5t39 -196q1 -203 -118.5 -306.5t-315.5 -113.5zM377 729h289q152 0 234.5 67.5t82.5 209.5t-84.5 208t-232.5 66h-289v-551z" />
<glyph unicode="S" horiz-adv-x="1146" d="M293 1077q-2 -37 7 -69.5t24 -55.5t41 -43.5t48 -33t57 -25t55.5 -18.5t54.5 -15q53 -13 95 -26t90 -34t83.5 -45.5t69.5 -59.5t55 -77t32.5 -98.5t8.5 -122.5q-4 -94 -46.5 -169.5t-109 -121t-145.5 -69t-164 -23.5q-146 0 -274 81t-183 227l133 71q40 -103 129.5 -165 t198.5 -62q128 -2 209 64t88 178q3 50 -8 91.5t-37 71.5t-53.5 52t-70 39.5t-72 27t-72.5 21.5q-47 13 -83.5 24.5t-81.5 31t-78.5 41t-67 53.5t-54 69.5t-33 88t-10.5 109.5q3 94 40.5 169.5t98.5 122.5t135 71.5t154 24.5q142 0 260.5 -74t167.5 -207l-129 -64 q-37 92 -119.5 142.5t-175.5 50.5q-106 2 -183.5 -61t-84.5 -183z" />
<glyph unicode="T" horiz-adv-x="923" d="M20 1438h883v-164h-356v-1274h-170v1274h-357v164z" />
<glyph unicode="U" horiz-adv-x="1341" d="M186 1434h170v-1020q0 -135 92 -211t218 -78q82 -1 153 29.5t118.5 98.5t47.5 161v1020h170v-1020q0 -108 -42 -195t-111.5 -141t-156 -82t-179.5 -27q-92 1 -176.5 30t-153 83t-109.5 140t-41 192v1020z" />
<glyph unicode="V" horiz-adv-x="1284" d="M750 -4h-207l-518 1446h182l440 -1260l438 1260h179z" />
<glyph unicode="W" horiz-adv-x="1953" d="M1063 1257l328 -1067l327 1248h174l-397 -1444h-207l-301 964q-60 -192 -303 -964h-207l-397 1444h176l326 -1250l331 1069h150z" />
<glyph unicode="X" horiz-adv-x="1316" d="M1260 1434l-490 -717q77 -113 246 -357t246 -358h-205l-387 576l-387 -576h-207l493 715l-489 717h203l387 -568q34 50 173.5 255.5t213.5 312.5h203z" />
<glyph unicode="Y" horiz-adv-x="1206" d="M1176 1444l-492 -873v-571h-166v571q-68 120 -235.5 421t-253.5 452h192l381 -694q43 78 120 218.5t140.5 257t118.5 218.5h195z" />
<glyph unicode="Z" d="M119 0v164l559 831l211 297h-746v152h912v-156l-537 -803l-237 -331h774v-154h-936z" />
<glyph unicode="[" horiz-adv-x="636" d="M559 1612v-146h-176l-2 -1499h176v-141h-342l2 1786h342z" />
<glyph unicode="\" horiz-adv-x="866" d="M629 -133l-588 1726h172l590 -1726h-174z" />
<glyph unicode="]" horiz-adv-x="638" d="M74 1466v146h342l2 -1786h-342v141h176l-2 1499h-176z" />
<glyph unicode="^" horiz-adv-x="1247" d="M143 616l426 818h111l424 -818h-182l-297 592l-303 -592h-179z" />
<glyph unicode="_" horiz-adv-x="1191" d="M68 0h1046v-160h-1046v160z" />
<glyph unicode="`" horiz-adv-x="1042" d="M539 1559l-172 235h190l133 -235h-151z" />
<glyph unicode="a" d="M856 489q-115 74 -262 74q-163 -1 -250.5 -64.5t-87.5 -168.5q0 -97 82 -159t235 -62q75 0 154.5 36.5t128.5 94.5v249zM1010 0h-125l-23 92q-55 -53 -132.5 -84t-156.5 -33q-224 -1 -344 98t-120 257q0 161 126 265t357 101q119 0 268 -78v46q0 260 -299 260 q-83 0 -167 -27t-150 -74l-68 113q178 129 389 129q90 1 167.5 -21t141 -67.5t100 -125.5t36.5 -187v-664z" />
<glyph unicode="b" horiz-adv-x="1175" d="M547 1051q246 0 387 -148t141 -389q0 -105 -34.5 -201.5t-95 -169t-148.5 -115t-189 -40.5q-47 1 -76 4t-70.5 13.5t-79 35.5t-73.5 65l-28 -106h-115v1434h156v-455q97 72 225 72zM594 125q157 15 243.5 121.5t86.5 273.5q0 95 -32 170.5t-86 121.5t-122 69.5t-143 21.5 q-123 -3 -222 -63v-580q116 -154 275 -135z" />
<glyph unicode="c" horiz-adv-x="1077" d="M985 920l-88 -109q-113 107 -276 107q-71 1 -137.5 -28t-117.5 -80.5t-82 -128t-32 -165.5q0 -73 23.5 -141.5t68 -124t117.5 -89.5t162 -34q157 0 282 115l90 -109q-152 -149 -372 -149q-127 0 -230.5 45.5t-168 121.5t-98.5 171t-34 198q1 82 22.5 160t66 147 t106.5 121.5t148.5 83t187.5 31.5q216 0 362 -143z" />
<glyph unicode="d" horiz-adv-x="1173" d="M629 1051q128 0 225 -72v455h156v-1434h-115l-29 106q-36 -40 -73.5 -65t-79 -35.5t-70.5 -13.5t-76 -4q-101 -2 -189 40.5t-148.5 115t-95 169t-34.5 201.5q0 241 141.5 389t387.5 148zM582 125q78 -7 150 29.5t124 105.5v580q-108 63 -229 63q-74 1 -140.5 -23 t-119.5 -70t-84 -121t-31 -169q0 -167 86.5 -273.5t243.5 -121.5z" />
<glyph unicode="e" horiz-adv-x="1226" d="M623 123q89 0 170.5 37t132.5 106l123 -78q-156 -211 -426 -211q-102 0 -190 31t-149.5 83.5t-105 122.5t-64.5 148.5t-20 159.5q0 102 34.5 198t99 173t167 124t226.5 48q162 1 285.5 -79.5t180.5 -218.5t33 -302h-870q10 -141 110 -241.5t263 -100.5zM252 600h725 q-12 143 -108.5 232t-245.5 92q-159 -1 -254 -93.5t-117 -230.5z" />
<glyph unicode="f" horiz-adv-x="606" d="M582 1436v-133q-112 17 -172 -29t-60 -148v-86h219v-129h-219v-911h-155v911h-170v129h170v86q0 167 107 249t280 61z" />
<glyph unicode="g" horiz-adv-x="1181" d="M635 1049q61 0 124 -24t101 -71l29 84h127v-1028q0 -124 -48.5 -217t-126 -142t-175.5 -67t-195.5 -1.5t-189 64t-152.5 120.5l96 104q42 -48 105.5 -84.5t134 -55t142 -12.5t128 35t92 95t35.5 161v80q-45 -45 -99 -69t-92 -29t-98 -6q-101 -2 -189 40.5t-148.5 115 t-95 169t-34.5 201.5q0 241 141.5 389t387.5 148zM588 123q158 -19 274 135v551q-100 90 -233 90q-73 1 -138.5 -23t-118 -69.5t-83.5 -120.5t-31 -168q0 -167 86.5 -273.5t243.5 -121.5z" />
<glyph unicode="h" horiz-adv-x="1241" d="M166 1436h160v-469q101 85 268 88q219 -5 357.5 -129t138.5 -344v-582h-160v582q-1 145 -94 231.5t-236 95.5q-156 7 -276 -78v-831h-158v1436z" />
<glyph unicode="i" horiz-adv-x="493" d="M328 0h-162v1049h162v-1049zM330 1212h-166v230h166v-230z" />
<glyph unicode="j" horiz-adv-x="493" d="M-45 -406v132q99 -6 155 42t56 136v1145h162v-1145q0 -165 -103.5 -245.5t-269.5 -64.5zM326 1212h-166v232h166v-232z" />
<glyph unicode="k" horiz-adv-x="1060" d="M166 1434h156v-883l487 489h195l-457 -454l473 -586h-186l-390 483l-122 -114v-369h-156v1434z" />
<glyph unicode="l" horiz-adv-x="557" d="M481 137v-141q-160 -17 -243.5 61t-83.5 248v1139h161v-1139q0 -94 35 -134.5t131 -33.5z" />
<glyph unicode="m" horiz-adv-x="1890" d="M879 621q0 91 -39 158t-102.5 98t-136.5 37t-147.5 -21.5t-129.5 -81.5v-811h-158v1038h135l21 -96q100 111 276 111q119 0 213 -47t141 -132q50 92 145 137.5t212 45.5q66 0 126.5 -15.5t116.5 -50.5t97 -87t65.5 -130t24.5 -174v-600h-158v600q0 86 -22.5 149.5 t-62.5 99.5t-89 52.5t-109 16.5q-54 0 -101 -18t-84 -53.5t-58.5 -93.5t-22.5 -132l-2 -621h-151v621z" />
<glyph unicode="n" horiz-adv-x="1261" d="M166 1038h135l21 -96q44 49 125.5 79t173.5 32q220 -5 353.5 -122.5t133.5 -336.5v-594h-160v594q-1 144 -89 224t-232 89q-76 3 -161 -22t-142 -80v-805h-158v1038z" />
<glyph unicode="o" horiz-adv-x="1239" d="M252 518q0 -98 31 -176t82.5 -126t116.5 -73.5t136 -25.5q72 0 137 25.5t117.5 73.5t83.5 126t31 176t-31 175.5t-83.5 125t-117.5 72t-137 24.5q-71 0 -135.5 -24.5t-117 -72t-83 -125t-30.5 -175.5zM1147 518q0 -151 -66 -274.5t-188 -196t-275 -72.5 q-230 0 -378 156.5t-148 386.5t148 385.5t378 155.5q153 0 275 -72t188 -195t66 -274z" />
<glyph unicode="p" horiz-adv-x="1173" d="M557 1051q244 7 381 -139t137 -398q0 -114 -40 -213.5t-107.5 -167.5t-157.5 -107t-188 -38q-157 0 -263 71v-458h-153v1437h125l24 -108q41 51 108 85.5t134 35.5zM594 125q157 15 243.5 121.5t86.5 273.5q0 96 -29.5 172t-80 122t-113 69.5t-132.5 21.5 q-138 -3 -250 -112v-568q108 -120 275 -100z" />
<glyph unicode="q" horiz-adv-x="1173" d="M616 1051q67 -1 134 -35.5t108 -85.5l25 108h125v-1437h-154v458q-106 -71 -262 -71q-132 -1 -244.5 65t-181 188t-68.5 273q0 252 137 398t381 139zM580 125q166 -20 274 100v568q-112 109 -250 112q-70 2 -132.5 -21.5t-112.5 -69.5t-79.5 -122t-29.5 -172 q0 -167 86.5 -273.5t243.5 -121.5z" />
<glyph unicode="r" horiz-adv-x="827" d="M166 1044h137l16 -133q49 84 139.5 122t183 31.5t171.5 -46.5l-59 -139q-63 29 -126 34.5t-116.5 -13t-95.5 -55t-66 -94t-24 -126.5v-625h-160v1044z" />
<glyph unicode="s" horiz-adv-x="899" d="M473 596q56 -11 101.5 -26t91 -40t76.5 -57.5t50 -80t19 -105.5q0 -78 -35 -140t-91.5 -97.5t-120 -54t-128.5 -18.5q-108 0 -200 43t-150 127l98 101q103 -127 252 -127q53 -1 101.5 15.5t83 56.5t34.5 96q-1 36 -22 65.5t-56 48t-68.5 30t-70.5 18.5q-69 12 -123 31.5 t-101.5 53t-73.5 87.5t-27 125q0 96 53 168t134.5 107.5t176.5 35.5q85 0 166.5 -29t140.5 -90l-92 -104q-51 43 -101 59t-114 18q-85 2 -147.5 -42.5t-61.5 -122.5q0 -30 14 -54.5t34 -39.5t50 -27.5t53.5 -18.5t53.5 -12z" />
<glyph unicode="t" horiz-adv-x="641" d="M551 131v-137q-165 -18 -268 62.5t-103 246.5v608h-170v127h170v291l160 14v-305h211v-127h-211v-608q0 -188 211 -172z" />
<glyph unicode="u" horiz-adv-x="1259" d="M1094 0h-133l-23 106q-138 -120 -326 -120q-121 0 -224 51t-169.5 155t-66.5 242v602h159v-602q3 -95 52 -166.5t122 -105.5t158 -35q85 -2 162 31t131 98v780h158v-1036z" />
<glyph unicode="v" horiz-adv-x="991" d="M205 1042l246 -692q17 -44 45 -225h12q24 175 43 225l244 692h172l-371 -1046h-193l-370 1046h172z" />
<glyph unicode="w" horiz-adv-x="1470" d="M645 1044h178l174 -690q10 -32 19.5 -107t11.5 -116h10q2 45 10.5 118t18.5 107l195 688h163l-309 -1044h-188l-174 694q-2 8 -9.5 73t-7.5 67h-8q0 -1 -7 -69.5t-7 -70.5l-172 -694h-189l-311 1044h164l194 -688q8 -24 14.5 -60.5t9 -62t6 -62.5t3.5 -40h10q2 49 10 125 t15 98z" />
<glyph unicode="x" horiz-adv-x="1052" d="M522 637l269 407h198l-364 -524l368 -520h-198l-273 403l-272 -403h-199l367 520l-363 524h199z" />
<glyph unicode="y" horiz-adv-x="1032" d="M182 -389v133q87 -10 131.5 17.5t67.5 84.5l57 150l-424 1042h172l336 -860l320 860h172l-482 -1243q-78 -209 -350 -184z" />
<glyph unicode="z" horiz-adv-x="964" d="M94 0v150l568 749l-545 -2v143h747v-104l-602 -795h602v-141h-770z" />
<glyph unicode="{" horiz-adv-x="638" d="M567 1599v-145q-10 0 -30 0.5t-28 0t-23 -1t-21 -3.5t-16 -7.5t-14 -12t-9 -18.5t-6.5 -26t-1.5 -34v-332q0 -226 -111 -305q111 -79 111 -305v-330q0 -22 3 -38.5t6 -28t13.5 -19t15 -11.5t23 -6t24 -2.5t31 0t33.5 0.5v-145h-96q-104 0 -162.5 65t-58.5 173v303 q0 268 -137 268v152q137 0 137 268v303q0 108 58.5 172.5t162.5 64.5h96z" />
<glyph unicode="|" horiz-adv-x="583" d="M213 -326v1948h158v-1948h-158z" />
<glyph unicode="}" horiz-adv-x="638" d="M72 1454v145h96q104 0 162.5 -64.5t58.5 -172.5v-303q0 -268 137 -268v-152q-137 0 -137 -268v-303q0 -108 -58.5 -173t-162.5 -65h-96v145q10 0 27.5 -0.5t25 0t21.5 1t20 2t16 5t14.5 9t10.5 13.5t8 18.5t4 24.5t2 32v330q0 226 111 305q-111 79 -111 305v332 q0 19 -1.5 34t-6.5 26t-9 18.5t-14 12t-16 7.5t-21 3.5t-23 1t-28 0t-30 -0.5z" />
<glyph unicode="~" horiz-adv-x="1220" d="M979 801l108 -88q-52 -114 -134 -168.5t-179 -46.5t-199 73q-84 54 -138 61t-99 -27.5t-105 -125.5l-106 88q199 368 537 138q55 -37 99 -47.5t81.5 6.5t68 49t66.5 88z" />
<glyph unicode="&#xa1;" horiz-adv-x="595" d="M215 688h168l10 -1085h-186zM207 1036h184v-211h-184v211z" />
<glyph unicode="&#xa2;" d="M594 2v174q-114 10 -206 58.5t-149 123t-87.5 165t-30.5 188.5q1 97 32 187.5t88.5 165.5t149 124.5t203.5 60.5v185h125v-185q171 -18 295 -139l-88 -109q-113 107 -277 107q-71 1 -137.5 -28t-117 -80t-81.5 -127.5t-32 -165.5q0 -73 23.5 -141.5t68 -124.5t117 -90 t161.5 -34q77 0 151 30.5t132 84.5l90 -108q-128 -125 -305 -146v-176h-125z" />
<glyph unicode="&#xa3;" horiz-adv-x="1212" d="M1112 1092l-156 -31q-15 78 -62 134.5t-107.5 81.5t-127.5 23t-122.5 -31t-92 -91t-36.5 -146v-262h450v-123h-450v-497h714v-150h-997v150h117v497h-113v123h113v262q0 98 33 179t88 132.5t126.5 82t147.5 35t153 -17t141.5 -65.5t113 -118t67.5 -168z" />
<glyph unicode="&#xa5;" horiz-adv-x="1255" d="M1210 1434l-348 -623h174v-123h-243l-72 -129v-24h315v-123h-315v-412h-168v412h-313v123h313v24q-35 65 -72 129h-241v123h172q-38 68 -110.5 199t-130.5 234t-108 190h195l381 -695q61 114 188 347.5t189 347.5h194z" />
<glyph unicode="&#xa6;" horiz-adv-x="579" d="M213 -326v840h158v-840h-158zM371 1622v-834h-158v834h158z" />
<glyph unicode="&#xa7;" horiz-adv-x="966" d="M481 586q63 -11 129 -37q86 47 86 137q-1 37 -22 67t-55.5 48.5t-69 29.5t-70.5 17q-50 8 -112 29q-94 -51 -91 -142q0 -30 14 -54t33.5 -38.5t50.5 -27t53.5 -18t53.5 -11.5zM256 932q-102 79 -102 213q0 97 53 169.5t134.5 108t176.5 35.5q84 0 165.5 -30t139.5 -91 l-90 -110q-96 81 -219 84q-83 2 -144.5 -43t-60.5 -123q0 -37 19 -64t54.5 -43.5t63 -24.5t68.5 -16q71 -14 126.5 -36t106 -57.5t78 -90.5t27.5 -127q0 -144 -137 -192q104 -81 104 -220q0 -63 -23.5 -116t-61.5 -88t-87.5 -59t-100.5 -35t-102 -11q-108 0 -201 43 t-151 127l101 98q103 -124 251 -124q84 -2 151.5 41t66.5 124q0 37 -21 67t-55.5 48.5t-68.5 30t-71 18.5q-55 9 -99.5 23t-88 37.5t-72.5 55t-47 78t-18 103.5q0 65 37 117.5t98 79.5z" />
<glyph unicode="&#xa8;" horiz-adv-x="1042" d="M440 1602h-184v200h184v-200zM795 1602h-185v200h185v-200z" />
<glyph unicode="&#xa9;" horiz-adv-x="1701" d="M121 717q0 153 57.5 291.5t154.5 238.5t231.5 158.5t283.5 58.5q201 0 369.5 -99.5t266 -271t97.5 -376.5q0 -153 -57.5 -292t-155.5 -238.5t-234 -158.5t-286 -59q-149 0 -283.5 59t-231.5 158.5t-154.5 238.5t-57.5 292zM866 455q-141 0 -207 112q-44 72 -39.5 163 t56.5 157q54 70 131 88q65 17 133.5 -3.5t116.5 -68.5l90 107q-111 114 -281 114q-112 0 -202.5 -50.5t-143.5 -147.5q-53 -96 -53.5 -210t53.5 -210q53 -95 144 -145t202 -50q163 0 281 115l-92 104q-78 -75 -189 -75zM270 717q0 -126 45 -239t121.5 -194t184 -128 t227.5 -47q97 0 187 30t161.5 85.5t124.5 130.5t82 168t29 194t-29 194t-82 168t-124.5 130.5t-161.5 85.5t-187 30q-120 0 -227.5 -47t-184 -128t-121.5 -194t-45 -239z" />
<glyph unicode="&#xaa;" horiz-adv-x="995" d="M707 678l-13 88q-44 -61 -114.5 -82.5t-147.5 -5.5q-137 27 -224 131t-87 256q0 164 116.5 282t280.5 121q168 6 309 -61l9 -4v-725h-129zM838 571v-116h-680v116h680zM690 887l2 444q-76 26 -170 19q-109 -9 -183.5 -91t-74.5 -194q0 -93 57 -167.5t144 -94.5 q67 -14 126.5 7.5t98.5 76.5z" />
<glyph unicode="&#xab;" horiz-adv-x="1142" d="M512 578l336 421h184l-336 -421l336 -420h-184zM436 158l-336 420l336 421h185l-336 -421l336 -420h-185z" />
<glyph unicode="&#xac;" horiz-adv-x="1277" d="M133 707v149h977v-547h-147v398h-830z" />
<glyph unicode="&#xad;" horiz-adv-x="903" d="M154 506v151h598v-151h-598z" />
<glyph unicode="&#xae;" horiz-adv-x="1701" d="M950 631q97 19 150 81t53 162q-1 127 -80.5 191.5t-208.5 64.5h-266v-813h145v308h52l233 -308h170zM123 713q0 153 57.5 291.5t154.5 238.5t231.5 158.5t283.5 58.5q201 0 369.5 -99.5t266 -271t97.5 -376.5q0 -153 -57.5 -292t-155.5 -238.5t-234 -158.5t-286 -59 q-149 0 -283.5 59t-231.5 158.5t-154.5 238.5t-57.5 292zM272 713q0 -169 76 -308.5t209 -220t293 -80.5q162 0 296.5 80.5t211 220t76.5 308.5q0 101 -29 194t-82 168t-124.5 130.5t-161.5 85.5t-187 30q-120 0 -227.5 -47t-184 -128t-121.5 -194t-45 -239zM743 748v258 h121q67 0 108.5 -42t43.5 -90t-41.5 -87t-110.5 -39h-121z" />
<glyph unicode="&#xaf;" horiz-adv-x="1042" d="M260 1550v138h522v-138h-522z" />
<glyph unicode="&#xb0;" horiz-adv-x="819" d="M408 895q-118 0 -201.5 81.5t-83.5 197.5q0 114 83.5 196t201.5 82t202 -82t84 -196q0 -116 -84 -197.5t-202 -81.5zM408 1022q64 0 107.5 44.5t43.5 107.5q0 64 -43.5 108.5t-107.5 44.5t-108 -45t-44 -108t44 -107.5t108 -44.5z" />
<glyph unicode="&#xb1;" horiz-adv-x="1415" d="M215 141h985v-141h-985v141zM201 696v162h430v418h157v-418h412v-162h-412v-422h-157v422h-430z" />
<glyph unicode="&#xb2;" horiz-adv-x="829" d="M635 1077l-340 -301h453v-131h-629l-45 98l458 433q88 88 66 161q-14 51 -64.5 75t-109.5 26q-68 3 -123.5 -24t-83.5 -85l-129 53q30 71 92 121q47 39 113 58q68 19 133 16q108 -3 195.5 -55.5t115.5 -149.5q23 -77 -7 -155t-95 -140z" />
<glyph unicode="&#xb3;" horiz-adv-x="870" d="M633 1143q137 -71 137 -228q-1 -88 -51.5 -154.5t-126.5 -98t-162 -31.5q-106 0 -198 50t-136 142l121 58q31 -56 91 -87.5t126 -31.5q73 0 128.5 42.5t55.5 113.5q0 67 -49.5 111t-117.5 44h-93v123h93q61 0 101 29t40 88q0 62 -46.5 95.5t-111.5 33.5q-56 0 -108.5 -27 t-77.5 -74l-117 62q40 80 122 125t175 45q81 0 151 -28t117 -89t47 -143q0 -54 -30.5 -101t-79.5 -69z" />
<glyph unicode="&#xb4;" horiz-adv-x="1042" d="M684 1794l-172 -235h-152l134 235h190z" />
<glyph unicode="&#xb6;" horiz-adv-x="1228" d="M522 -164v729q-102 4 -185 42.5t-134.5 99.5t-79 135.5t-27.5 154.5q0 85 30.5 163.5t89 142t152.5 101.5t210 38h450v-1606h-162v1464h-180v-1464h-164z" />
<glyph unicode="&#xb7;" horiz-adv-x="552" d="M190 506v194h189v-194h-189z" />
<glyph unicode="&#xb8;" horiz-adv-x="1042" d="M610 31l-65 -117q56 -2 107 -50t48 -108q-4 -89 -63.5 -134.5t-136.5 -45.5q-74 0 -174 51l30 90q69 -39 131 -39q33 -1 57 13.5t30.5 35t2 41t-27.5 36t-57 16.5q-33 0 -56 -13l-49 41l105 183h118z" />
<glyph unicode="&#xb9;" horiz-adv-x="622" d="M242 637v788h-131v134h18h246h18v-922h-151z" />
<glyph unicode="&#xba;" horiz-adv-x="976" d="M487 803q-141 0 -237 92t-96 235q0 137 96 229.5t235 92.5q141 0 238.5 -92.5t97.5 -229.5q0 -143 -97 -235t-237 -92zM487 918q85 0 143 60t58 152q0 90 -58.5 148.5t-142.5 58.5q-86 0 -144 -58.5t-58 -148.5q0 -93 58 -152.5t144 -59.5zM170 526v133h639v-133h-639z " />
<glyph unicode="&#xbb;" horiz-adv-x="1142" d="M524 158l336 420l-336 421h183l335 -421l-335 -420h-183zM111 158l335 420l-335 421h182l336 -421l-336 -420h-182z" />
<glyph unicode="&#xbc;" horiz-adv-x="1918" d="M637 -66h-154l768 1610h154zM1720 295v612h-147l-479 -635l90 -108h387v-164h149v164h80v131h-80zM1571 295l-297 2l299 408zM330 1303v-711h151v844h-18h-246h-18v-133h131z" />
<glyph unicode="&#xbd;" horiz-adv-x="1957" d="M561 -61h-153l770 1597h153zM295 1303v-711h151v844h-18h-246h-18v-133h131zM1386 131l340 301q65 62 95.5 140t7.5 155q-28 97 -115.5 149.5t-195.5 55.5q-63 3 -134 -17q-66 -19 -112 -57q-62 -50 -92 -121l129 -53q28 58 83.5 85t123.5 24q59 -2 109.5 -26t64.5 -75 q22 -74 -66 -162l-459 -432l45 -98h629v131h-453z" />
<glyph unicode="&#xbe;" horiz-adv-x="2025" d="M760 -74h-154l780 1610h154zM1815 295v612h-148l-479 -635l90 -108h387v-164h150v164h79v131h-79zM1665 295l-297 2l299 408zM627 1034q49 22 79.5 69t30.5 101q0 82 -47 143t-117 89t-151 28q-93 0 -175 -45t-122 -125l117 -61q25 47 77.5 73.5t108.5 26.5 q65 0 111.5 -33.5t46.5 -95.5q0 -59 -40.5 -88t-101.5 -29h-92v-122h92q68 0 118 -44.5t50 -111.5q0 -71 -55.5 -113.5t-128.5 -42.5q-66 0 -126 31.5t-91 87.5l-121 -57q44 -92 136 -142.5t198 -50.5q86 0 162 32t126.5 98.5t51.5 154.5q0 156 -137 227z" />
<glyph unicode="&#xbf;" horiz-adv-x="1032" d="M983 -231l-18 -23q-67 -87 -173.5 -132.5t-224.5 -45.5q-90 0 -173 28t-148.5 80.5t-105 135.5t-38.5 184q1 182 111 299.5t293 150.5l14 295h146l12 -424q-104 -1 -198 -41.5t-153 -115.5t-57 -166q3 -123 92.5 -198t208.5 -75q82 0 160.5 38t130.5 102zM498 1036h178 v-190h-178v190z" />
<glyph unicode="&#xc0;" horiz-adv-x="1294" d="M27 0l514 1444h207l520 -1444h-178l-166 459h-555l-162 -459h-180zM420 614h448l-223 652zM569 1530l-172 235h191l133 -235h-152z" />
<glyph unicode="&#xc1;" horiz-adv-x="1294" d="M27 0l514 1444h207l520 -1444h-178l-166 459h-555l-162 -459h-180zM420 614h448l-223 652zM893 1774l-172 -236h-152l133 236h191z" />
<glyph unicode="&#xc2;" horiz-adv-x="1294" d="M27 0l514 1444h207l520 -1444h-178l-166 459h-555l-162 -459h-180zM420 614h448l-223 652zM358 1518l181 239h206l181 -239h-152l-131 165h-4l-129 -165h-152z" />
<glyph unicode="&#xc3;" horiz-adv-x="1294" d="M27 0l514 1444h207l520 -1444h-178l-166 459h-555l-162 -459h-180zM420 614h448l-223 652zM879 1749l92 -68q-47 -106 -145.5 -133t-194.5 37q-127 81 -213 -51l-99 63q61 115 163 141t206 -46q111 -74 191 57z" />
<glyph unicode="&#xc4;" horiz-adv-x="1294" d="M27 0l514 1444h207l520 -1444h-178l-166 459h-555l-162 -459h-180zM420 614h448l-223 652zM563 1536h-172v182h172v-182zM897 1536h-174v182h174v-182z" />
<glyph unicode="&#xc5;" horiz-adv-x="1294" d="M27 0l514 1444h207l520 -1444h-178l-166 459h-555l-162 -459h-180zM420 614h448l-223 652zM641 1518q-72 0 -123 41.5t-51 109.5q0 70 51 112t123 42q71 0 122.5 -42.5t51.5 -111.5q0 -68 -51.5 -109.5t-122.5 -41.5zM641 1602q29 0 48.5 19t19.5 48q0 32 -19 52t-49 20 q-31 0 -49.5 -20t-18.5 -52q0 -29 18.5 -48t49.5 -19z" />
<glyph unicode="&#xc6;" horiz-adv-x="1771" d="M23 2l733 1444h905v-156h-596v-491h590v-158h-590l-2 -479h598v-160h-766v483h-446l-246 -483h-180zM895 645v680h-27l-340 -680h367z" />
<glyph unicode="&#xc7;" horiz-adv-x="1492" d="M1360 1243l-109 -113q-81 85 -188.5 131.5t-222.5 43.5q-134 -2 -242.5 -53t-177 -135t-105 -188t-36.5 -216q0 -89 23 -173t70 -158.5t112.5 -130t157.5 -88t198 -32.5q126 0 244 55t200 152l119 -98q-95 -114 -226.5 -182.5t-283.5 -80.5l-47 -86q56 -2 107 -49.5 t48 -107.5q-4 -89 -63.5 -134.5t-136.5 -45.5q-74 0 -174 51l30 90q69 -39 131 -39q33 -1 57 13t30.5 34.5t2 41.5t-27.5 36t-57 16q-34 0 -56 -12l-49 41l86 154q-127 9 -235.5 54t-186.5 115t-133.5 161t-82.5 193t-27 210q0 113 29.5 221t91 203t147 167t205 114 t258.5 42q151 0 284.5 -57t235.5 -160z" />
<glyph unicode="&#xc8;" horiz-adv-x="1087" d="M975 1442v-158h-598v-485h590v-158h-590l-2 -479h600v-160h-768v1440h768zM584 1583l-172 236h190l133 -236h-151z" />
<glyph unicode="&#xc9;" horiz-adv-x="1087" d="M975 1442v-158h-598v-485h590v-158h-590l-2 -479h600v-160h-768v1440h768zM827 1829l-172 -236h-151l133 236h190z" />
<glyph unicode="&#xca;" horiz-adv-x="1087" d="M975 1442v-158h-598v-485h590v-158h-590l-2 -479h600v-160h-768v1440h768zM315 1536l181 240h206l181 -240h-152l-131 166h-4l-129 -166h-152z" />
<glyph unicode="&#xcb;" horiz-adv-x="1087" d="M956 1436v-152h-598v-485h590v-154h-590l-2 -491h600v-152h-768v1434h768zM518 1575h-174v154h174v-154zM852 1575h-174v154h174v-154z" />
<glyph unicode="&#xcc;" horiz-adv-x="581" d="M207 0v1440h168v-1440h-168zM211 1536l-172 236h190l133 -236h-151z" />
<glyph unicode="&#xcd;" horiz-adv-x="581" d="M207 0v1440h168v-1440h-168zM532 1774l-172 -236h-151l133 236h190z" />
<glyph unicode="&#xce;" horiz-adv-x="581" d="M207 0v1440h168v-1440h-168zM2 1518l180 239h207l180 -239h-151l-131 165h-4l-129 -165h-152z" />
<glyph unicode="&#xcf;" horiz-adv-x="581" d="M207 0v1440h168v-1440h-168zM207 1536h-176v176h176v-176zM547 1536h-176v176h176v-176z" />
<glyph unicode="&#xd0;" horiz-adv-x="1497" d="M94 637v156h125v651h443q137 1 254 -38t200 -107t143 -159t89.5 -193.5t31.5 -211.5q2 -111 -24.5 -217t-85.5 -200t-142.5 -165t-203 -112t-260.5 -41h-445v637h-125zM662 156q110 -2 202.5 29.5t157 87t109.5 130t65 158.5t18 172q-2 107 -38.5 205.5t-103 177 t-171.5 125.5t-235 47h-279v-495h270v-156h-270v-481h275z" />
<glyph unicode="&#xd1;" horiz-adv-x="1495" d="M207 1442h180l737 -1204v1204h170v-1442h-215l-704 1155v-1155h-168v1442zM983 1743l92 -68q-47 -106 -145.5 -133t-194.5 37q-127 81 -213 -51l-98 63q61 115 163 141t206 -46q110 -74 190 57z" />
<glyph unicode="&#xd2;" horiz-adv-x="1679" d="M840 1462q148 0 283.5 -60.5t233.5 -161.5t156 -238.5t58 -286.5q0 -150 -58 -287.5t-156 -237.5t-233.5 -159.5t-283.5 -59.5t-283.5 59.5t-233.5 159.5t-156 237.5t-58 287.5q0 149 58 286.5t156 238.5t233.5 161.5t283.5 60.5zM279 715q0 -140 48 -254.5t127.5 -185.5 t179 -109.5t206.5 -38.5t206.5 38.5t179 109.5t127.5 185.5t48 254.5q0 112 -31.5 209t-86 166.5t-126 119.5t-153 74t-166.5 23q-107 -1 -206 -40.5t-178.5 -112.5t-127 -187t-47.5 -252zM809 1589l-172 236h190l134 -236h-152z" />
<glyph unicode="&#xd3;" horiz-adv-x="1679" d="M840 1462q148 0 283.5 -60.5t233.5 -161.5t156 -238.5t58 -286.5q0 -150 -58 -287.5t-156 -237.5t-233.5 -159.5t-283.5 -59.5t-283.5 59.5t-233.5 159.5t-156 237.5t-58 287.5q0 149 58 286.5t156 238.5t233.5 161.5t283.5 60.5zM279 715q0 -140 48 -254.5t127.5 -185.5 t179 -109.5t206.5 -38.5t206.5 38.5t179 109.5t127.5 185.5t48 254.5q0 112 -31.5 209t-86 166.5t-126 119.5t-153 74t-166.5 23q-107 -1 -206 -40.5t-178.5 -112.5t-127 -187t-47.5 -252zM1069 1864l-172 -236h-152l134 236h190z" />
<glyph unicode="&#xd4;" horiz-adv-x="1679" d="M840 1462q148 0 283.5 -60.5t233.5 -161.5t156 -238.5t58 -286.5q0 -150 -58 -287.5t-156 -237.5t-233.5 -159.5t-283.5 -59.5t-283.5 59.5t-233.5 159.5t-156 237.5t-58 287.5q0 149 58 286.5t156 238.5t233.5 161.5t283.5 60.5zM279 715q0 -140 48 -254.5t127.5 -185.5 t179 -109.5t206.5 -38.5t206.5 38.5t179 109.5t127.5 185.5t48 254.5q0 112 -31.5 209t-86 166.5t-126 119.5t-153 74t-166.5 23q-107 -1 -206 -40.5t-178.5 -112.5t-127 -187t-47.5 -252zM602 1585l180 240h207l180 -240h-151l-131 166h-4l-129 -166h-152z" />
<glyph unicode="&#xd5;" horiz-adv-x="1679" d="M840 1462q148 0 283.5 -60.5t233.5 -161.5t156 -238.5t58 -286.5q0 -150 -58 -287.5t-156 -237.5t-233.5 -159.5t-283.5 -59.5t-283.5 59.5t-233.5 159.5t-156 237.5t-58 287.5q0 149 58 286.5t156 238.5t233.5 161.5t283.5 60.5zM279 715q0 -140 48 -254.5t127.5 -185.5 t179 -109.5t206.5 -38.5t206.5 38.5t179 109.5t127.5 185.5t48 254.5q0 112 -31.5 209t-86 166.5t-126 119.5t-153 74t-166.5 23q-107 -1 -206 -40.5t-178.5 -112.5t-127 -187t-47.5 -252zM1087 1833l93 -68q-47 -106 -145.5 -133t-194.5 37q-127 81 -213 -51l-99 63 q61 115 163 141t206 -46q110 -74 190 57z" />
<glyph unicode="&#xd6;" horiz-adv-x="1679" d="M840 1462q148 0 283.5 -60.5t233.5 -161.5t156 -238.5t58 -286.5q0 -150 -58 -287.5t-156 -237.5t-233.5 -159.5t-283.5 -59.5t-283.5 59.5t-233.5 159.5t-156 237.5t-58 287.5q0 149 58 286.5t156 238.5t233.5 161.5t283.5 60.5zM279 715q0 -140 48 -254.5t127.5 -185.5 t179 -109.5t206.5 -38.5t206.5 38.5t179 109.5t127.5 185.5t48 254.5q0 112 -31.5 209t-86 166.5t-126 119.5t-153 74t-166.5 23q-107 -1 -206 -40.5t-178.5 -112.5t-127 -187t-47.5 -252zM752 1618h-187v172h187v-172zM1110 1618h-186v172h186v-172z" />
<glyph unicode="&#xd7;" horiz-adv-x="1103" d="M133 889l113 115l305 -306l295 295l112 -110l-296 -295l292 -293l-114 -113l-291 291l-299 -299l-113 113l299 297z" />
<glyph unicode="&#xd8;" horiz-adv-x="1679" d="M840 1462q171 0 325 -80l95 156h157l-137 -229q135 -106 213 -262.5t78 -331.5q0 -150 -58 -287.5t-156 -237.5t-233.5 -159.5t-283.5 -59.5q-167 0 -318 74l-88 -147h-160l132 219q-138 105 -217.5 261.5t-79.5 336.5q0 149 58 286.5t156 238.5t233.5 161.5t283.5 60.5z M279 715q0 -154 55 -272t151 -195l600 1001q-116 58 -247 58q-107 -1 -206 -40.5t-178.5 -112.5t-127 -187t-47.5 -252zM1401 715q0 148 -54 266t-147 195l-598 -1000q113 -49 238 -49q107 0 206.5 38.5t179 109.5t127.5 185.5t48 254.5z" />
<glyph unicode="&#xd9;" horiz-adv-x="1341" d="M186 1434h170v-1020q0 -135 92 -211t218 -78q82 -1 153 29.5t118.5 98.5t47.5 161v1020h170v-1020q0 -108 -42 -195t-111.5 -141t-156 -82t-179.5 -27q-92 1 -176.5 30t-153 83t-109.5 140t-41 192v1020zM631 1585l-172 236h190l133 -236h-151z" />
<glyph unicode="&#xda;" horiz-adv-x="1341" d="M186 1434h170v-1020q0 -135 92 -211t218 -78q82 -1 153 29.5t118.5 98.5t47.5 161v1020h170v-1020q0 -108 -42 -195t-111.5 -141t-156 -82t-179.5 -27q-92 1 -176.5 30t-153 83t-109.5 140t-41 192v1020zM913 1808l-172 -235h-151l133 235h190z" />
<glyph unicode="&#xdb;" horiz-adv-x="1341" d="M186 1434h170v-1020q0 -135 92 -211t218 -78q82 -1 153 29.5t118.5 98.5t47.5 161v1020h170v-1020q0 -108 -42 -195t-111.5 -141t-156 -82t-179.5 -27q-92 1 -176.5 30t-153 83t-109.5 140t-41 192v1020zM395 1563l180 239h207l181 -239h-152l-131 166h-4l-129 -166h-152 z" />
<glyph unicode="&#xdc;" horiz-adv-x="1341" d="M186 1434h170v-1020q0 -135 92 -211t218 -78q82 -1 153 29.5t118.5 98.5t47.5 161v1020h170v-1020q0 -108 -42 -195t-111.5 -141t-156 -82t-179.5 -27q-92 1 -176.5 30t-153 83t-109.5 140t-41 192v1020zM602 1581h-184v201h184v-201zM956 1581h-184v201h184v-201z" />
<glyph unicode="&#xdd;" horiz-adv-x="1206" d="M1176 1444l-492 -873v-571h-166v571q-68 120 -235.5 421t-253.5 452h192l381 -694q43 78 120 218.5t140.5 257t118.5 218.5h195zM842 1761l-172 -235h-152l133 235h191z" />
<glyph unicode="&#xde;" horiz-adv-x="1193" d="M375 293v-293h-168v1434h168v-234h260q116 0 210.5 -39.5t152.5 -105t89 -146.5t31 -168q0 -88 -31 -167.5t-89.5 -142.5t-151.5 -100.5t-209 -37.5h-262zM635 449q77 0 138.5 25.5t99 67.5t57.5 93t20 106q0 56 -20 110.5t-57.5 100.5t-99.5 74.5t-138 28.5h-260v-606 h260z" />
<glyph unicode="&#xdf;" horiz-adv-x="1189" d="M332 1075v-917v-158h-170v1075q0 114 59.5 201.5t154 131.5t204.5 44q170 0 289.5 -100.5t119.5 -268.5q0 -87 -43.5 -168t-126.5 -133q120 -45 191 -148t69 -222q2 -90 -26 -165t-77 -125t-115 -83.5t-140 -45.5t-152.5 -5t-152.5 32v156q78 -45 176 -45q77 0 139 24 t100.5 63.5t59 90t20 103t-21 103t-59 90t-100.5 63.5t-138 24h-121v158h121q113 0 178 72.5t59 164.5q-7 96 -80 152.5t-171 56.5q-97 0 -171.5 -62t-74.5 -159z" />
<glyph unicode="&#xe0;" d="M856 489q-115 74 -262 74q-163 -1 -250.5 -64.5t-87.5 -168.5q0 -97 82 -159t235 -62q75 0 154.5 36.5t128.5 94.5v249zM1010 0h-125l-23 92q-55 -53 -132.5 -84t-156.5 -33q-224 -1 -344 98t-120 257q0 161 126 265t357 101q119 0 268 -78v46q0 260 -299 260 q-83 0 -167 -27t-150 -74l-68 113q178 129 389 129q90 1 167.5 -21t141 -67.5t100 -125.5t36.5 -187v-664zM569 1202l-172 236h191l133 -236h-152z" />
<glyph unicode="&#xe1;" d="M856 489q-115 74 -262 74q-163 -1 -250.5 -64.5t-87.5 -168.5q0 -97 82 -159t235 -62q75 0 154.5 36.5t128.5 94.5v249zM1010 0h-125l-23 92q-55 -53 -132.5 -84t-156.5 -33q-224 -1 -344 98t-120 257q0 161 126 265t357 101q119 0 268 -78v46q0 260 -299 260 q-83 0 -167 -27t-150 -74l-68 113q178 129 389 129q90 1 167.5 -21t141 -67.5t100 -125.5t36.5 -187v-664zM809 1436l-172 -236h-152l133 236h191z" />
<glyph unicode="&#xe2;" d="M856 489q-115 74 -262 74q-163 -1 -250.5 -64.5t-87.5 -168.5q0 -97 82 -159t235 -62q75 0 154.5 36.5t128.5 94.5v249zM1010 0h-125l-23 92q-55 -53 -132.5 -84t-156.5 -33q-224 -1 -344 98t-120 257q0 161 126 265t357 101q119 0 268 -78v46q0 260 -299 260 q-83 0 -167 -27t-150 -74l-68 113q178 129 389 129q90 1 167.5 -21t141 -67.5t100 -125.5t36.5 -187v-664zM315 1198l181 240h206l181 -240h-152l-131 166h-4l-129 -166h-152z" />
<glyph unicode="&#xe3;" d="M856 489q-115 74 -262 74q-163 -1 -250.5 -64.5t-87.5 -168.5q0 -97 82 -159t235 -62q75 0 154.5 36.5t128.5 94.5v249zM1010 0h-125l-23 92q-55 -53 -132.5 -84t-156.5 -33q-224 -1 -344 98t-120 257q0 161 126 265t357 101q119 0 268 -78v46q0 260 -299 260 q-83 0 -167 -27t-150 -74l-68 113q178 129 389 129q90 1 167.5 -21t141 -67.5t100 -125.5t36.5 -187v-664zM827 1458l93 -67q-47 -106 -145.5 -133.5t-194.5 36.5q-127 81 -213 -51l-99 64q61 115 163 140.5t206 -46.5q110 -74 190 57z" />
<glyph unicode="&#xe4;" d="M856 489q-115 74 -262 74q-163 -1 -250.5 -64.5t-87.5 -168.5q0 -97 82 -159t235 -62q75 0 154.5 36.5t128.5 94.5v249zM1010 0h-125l-23 92q-55 -53 -132.5 -84t-156.5 -33q-224 -1 -344 98t-120 257q0 161 126 265t357 101q119 0 268 -78v46q0 260 -299 260 q-83 0 -167 -27t-150 -74l-68 113q178 129 389 129q90 1 167.5 -21t141 -67.5t100 -125.5t36.5 -187v-664zM512 1257h-182v179h182v-179zM864 1257h-182v179h182v-179z" />
<glyph unicode="&#xe5;" d="M856 489q-115 74 -262 74q-163 -1 -250.5 -64.5t-87.5 -168.5q0 -97 82 -159t235 -62q75 0 154.5 36.5t128.5 94.5v249zM1010 0h-125l-23 92q-55 -53 -132.5 -84t-156.5 -33q-224 -1 -344 98t-120 257q0 161 126 265t357 101q119 0 268 -78v46q0 260 -299 260 q-83 0 -167 -27t-150 -74l-68 113q178 129 389 129q90 1 167.5 -21t141 -67.5t100 -125.5t36.5 -187v-664zM592 1184q-72 0 -122 41.5t-50 109.5q0 70 50 112t122 42q71 0 121.5 -42.5t50.5 -111.5q0 -68 -50.5 -109.5t-121.5 -41.5zM592 1270q29 0 48 18t19 47 q0 32 -18.5 51t-48.5 19q-31 0 -49.5 -19t-18.5 -51q0 -29 18.5 -47t49.5 -18z" />
<glyph unicode="&#xe6;" horiz-adv-x="1961" d="M1358 119q88 0 168 37t131 106l129 -78q-153 -207 -428 -207q-254 0 -402 175q-78 -83 -186.5 -128t-212.5 -42q-237 -2 -365 125q-98 97 -95 230q4 133 108 229q134 123 370 120q124 0 261 -72q2 2 2 4v17q0 82 -33 144t-86.5 96t-121 48.5t-135.5 7t-132 -34.5 t-109 -71l-82 95q65 65 159.5 102.5t193 40t189.5 -22t160.5 -86.5t94.5 -151q62 119 170.5 188t249.5 70q162 1 286.5 -81.5t182 -222.5t33.5 -304h-873q10 -140 109.5 -237t263.5 -97zM557 123q86 0 174.5 33.5t151.5 109.5q-51 111 -54 228q-102 59 -251 59 q-184 -1 -275 -95q-69 -71 -52 -158q17 -89 114 -137q79 -40 192 -40zM983 588h729q-12 144 -109 236.5t-245 95.5q-81 -1 -149 -28.5t-113.5 -74.5t-74 -105t-38.5 -124z" />
<glyph unicode="&#xe7;" horiz-adv-x="1077" d="M985 920l-88 -109q-113 107 -276 107q-71 1 -137.5 -28t-117.5 -80.5t-82 -128t-32 -165.5q0 -73 23.5 -141.5t68 -124t117.5 -89.5t162 -34q157 0 282 115l90 -109q-146 -143 -354 -149l-35 -62q56 -2 107.5 -50t48.5 -108q-4 -89 -64 -134.5t-137 -45.5q-74 0 -174 51 l31 91q69 -39 131 -39q55 -1 79.5 33.5t3 70t-78.5 37.5q-33 0 -55 -12l-49 41l75 135q-138 21 -238 101.5t-147 191t-47 235.5q1 82 22.5 160t66 147t106.5 121.5t148.5 83t187.5 31.5q216 0 362 -143z" />
<glyph unicode="&#xe8;" horiz-adv-x="1226" d="M623 123q89 0 170.5 37t132.5 106l123 -78q-156 -211 -426 -211q-102 0 -190 31t-149.5 83.5t-105 122.5t-64.5 148.5t-20 159.5q0 102 34.5 198t99 173t167 124t226.5 48q162 1 285.5 -79.5t180.5 -218.5t33 -302h-870q10 -141 110 -241.5t263 -100.5zM252 600h725 q-12 143 -108.5 232t-245.5 92q-159 -1 -254 -93.5t-117 -230.5zM594 1219l-172 235h190l133 -235h-151z" />
<glyph unicode="&#xe9;" horiz-adv-x="1226" d="M623 123q89 0 170.5 37t132.5 106l123 -78q-156 -211 -426 -211q-102 0 -190 31t-149.5 83.5t-105 122.5t-64.5 148.5t-20 159.5q0 102 34.5 198t99 173t167 124t226.5 48q162 1 285.5 -79.5t180.5 -218.5t33 -302h-870q10 -141 110 -241.5t263 -100.5zM252 600h725 q-12 143 -108.5 232t-245.5 92q-159 -1 -254 -93.5t-117 -230.5zM850 1448l-172 -236h-152l133 236h191z" />
<glyph unicode="&#xea;" horiz-adv-x="1226" d="M623 123q89 0 170.5 37t132.5 106l123 -78q-156 -211 -426 -211q-102 0 -190 31t-149.5 83.5t-105 122.5t-64.5 148.5t-20 159.5q0 102 34.5 198t99 173t167 124t226.5 48q162 1 285.5 -79.5t180.5 -218.5t33 -302h-870q10 -141 110 -241.5t263 -100.5zM252 600h725 q-12 143 -108.5 232t-245.5 92q-159 -1 -254 -93.5t-117 -230.5zM338 1210l180 240h207l180 -240h-151l-131 166h-5l-129 -166h-151z" />
<glyph unicode="&#xeb;" horiz-adv-x="1226" d="M623 123q89 0 170.5 37t132.5 106l123 -78q-156 -211 -426 -211q-102 0 -190 31t-149.5 83.5t-105 122.5t-64.5 148.5t-20 159.5q0 102 34.5 198t99 173t167 124t226.5 48q162 1 285.5 -79.5t180.5 -218.5t33 -302h-870q10 -141 110 -241.5t263 -100.5zM252 600h725 q-12 143 -108.5 232t-245.5 92q-159 -1 -254 -93.5t-117 -230.5zM537 1262h-187v165h187v-165zM895 1262h-186v165h186v-165z" />
<glyph unicode="&#xec;" horiz-adv-x="491" d="M328 0h-162v1049h162v-1049zM195 1212l-172 236h190l133 -236h-151z" />
<glyph unicode="&#xed;" horiz-adv-x="491" d="M328 0h-162v1049h162v-1049zM463 1448l-172 -236h-152l133 236h191z" />
<glyph unicode="&#xee;" horiz-adv-x="491" d="M328 0h-162v1049h162v-1049zM-39 1208l180 240h207l180 -240h-151l-131 166h-4l-129 -166h-152z" />
<glyph unicode="&#xef;" horiz-adv-x="491" d="M328 0h-162v1049h162v-1049zM166 1249h-168v181h168v-181zM485 1249h-166v181h166v-181z" />
<glyph unicode="&#xf0;" horiz-adv-x="1255" d="M428 1020l-59 84l217 131q-136 59 -312 59l15 140q260 0 452 -103l207 125l53 -86l-165 -100q318 -243 303 -783q-1 -99 -33.5 -187t-95 -158.5t-164.5 -112t-230 -41.5q-127 0 -229.5 42.5t-165.5 113t-95 158t-30 181.5q2 91 36.5 175t97.5 151.5t163 107.5t223 39 q115 -2 210 -48.5t157 -135.5q-32 129 -106.5 234.5t-184.5 175.5zM616 811q-87 0 -155.5 -28t-110.5 -75t-64 -105t-24 -122q-2 -66 19 -126t63 -109.5t112 -79t160 -29.5t161.5 30t114 79.5t64 110t19.5 126.5q-2 64 -24.5 121.5t-65 104.5t-112.5 74.5t-157 27.5z" />
<glyph unicode="&#xf1;" horiz-adv-x="1261" d="M166 1038h135l21 -96q44 49 125.5 79t173.5 32q220 -5 353.5 -122.5t133.5 -336.5v-594h-160v594q-1 144 -89 224t-232 89q-76 3 -161 -22t-142 -80v-805h-158v1038zM842 1456l92 -67q-47 -106 -145.5 -133.5t-194.5 36.5q-127 81 -213 -51l-98 64q61 115 162.5 140.5 t205.5 -46.5q111 -74 191 57z" />
<glyph unicode="&#xf2;" horiz-adv-x="1239" d="M252 518q0 -98 31 -176t82.5 -126t116.5 -73.5t136 -25.5q72 0 137 25.5t117.5 73.5t83.5 126t31 176t-31 175.5t-83.5 125t-117.5 72t-137 24.5q-71 0 -135.5 -24.5t-117 -72t-83 -125t-30.5 -175.5zM1147 518q0 -151 -66 -274.5t-188 -196t-275 -72.5 q-230 0 -378 156.5t-148 386.5t148 385.5t378 155.5q153 0 275 -72t188 -195t66 -274zM590 1212l-172 236h190l133 -236h-151z" />
<glyph unicode="&#xf3;" horiz-adv-x="1239" d="M252 518q0 -98 31 -176t82.5 -126t116.5 -73.5t136 -25.5q72 0 137 25.5t117.5 73.5t83.5 126t31 176t-31 175.5t-83.5 125t-117.5 72t-137 24.5q-71 0 -135.5 -24.5t-117 -72t-83 -125t-30.5 -175.5zM1147 518q0 -151 -66 -274.5t-188 -196t-275 -72.5 q-230 0 -378 156.5t-148 386.5t148 385.5t378 155.5q153 0 275 -72t188 -195t66 -274zM848 1444l-172 -236h-152l133 236h191z" />
<glyph unicode="&#xf4;" horiz-adv-x="1239" d="M252 518q0 -98 31 -176t82.5 -126t116.5 -73.5t136 -25.5q72 0 137 25.5t117.5 73.5t83.5 126t31 176t-31 175.5t-83.5 125t-117.5 72t-137 24.5q-71 0 -135.5 -24.5t-117 -72t-83 -125t-30.5 -175.5zM1147 518q0 -151 -66 -274.5t-188 -196t-275 -72.5 q-230 0 -378 156.5t-148 386.5t148 385.5t378 155.5q153 0 275 -72t188 -195t66 -274zM348 1208l180 240h207l180 -240h-151l-131 166h-4l-129 -166h-152z" />
<glyph unicode="&#xf5;" horiz-adv-x="1239" d="M252 518q0 -98 31 -176t82.5 -126t116.5 -73.5t136 -25.5q72 0 137 25.5t117.5 73.5t83.5 126t31 176t-31 175.5t-83.5 125t-117.5 72t-137 24.5q-71 0 -135.5 -24.5t-117 -72t-83 -125t-30.5 -175.5zM1147 518q0 -151 -66 -274.5t-188 -196t-275 -72.5 q-230 0 -378 156.5t-148 386.5t148 385.5t378 155.5q153 0 275 -72t188 -195t66 -274zM877 1464l92 -67q-47 -106 -145.5 -133.5t-194.5 36.5q-127 81 -213 -51l-99 64q61 115 163 140.5t206 -46.5q111 -74 191 57z" />
<glyph unicode="&#xf6;" horiz-adv-x="1239" d="M252 518q0 -98 31 -176t82.5 -126t116.5 -73.5t136 -25.5q72 0 137 25.5t117.5 73.5t83.5 126t31 176t-31 175.5t-83.5 125t-117.5 72t-137 24.5q-71 0 -135.5 -24.5t-117 -72t-83 -125t-30.5 -175.5zM1147 518q0 -151 -66 -274.5t-188 -196t-275 -72.5 q-230 0 -378 156.5t-148 386.5t148 385.5t378 155.5q153 0 275 -72t188 -195t66 -274zM545 1266h-183v178h183v-178zM899 1266h-184v178h184v-178z" />
<glyph unicode="&#xf7;" horiz-adv-x="1259" d="M522 987v187h185v-187h-185zM143 600v160h967v-160h-967zM522 186v187h187v-187h-187z" />
<glyph unicode="&#xf8;" horiz-adv-x="1239" d="M1147 518q0 -151 -66 -274.5t-188 -196t-275 -72.5q-118 0 -235 52l-80 -129h-139l119 192q-90 74 -140.5 186t-50.5 242q0 230 148 385.5t378 155.5q129 0 234 -51l84 135h137l-123 -197q93 -74 145 -185.5t52 -242.5zM987 518q0 193 -115 301l-413 -669q70 -33 159 -33 q72 0 137 25.5t117.5 73.5t83.5 126t31 176zM252 518q0 -192 110 -299l412 664q-68 32 -156 32q-71 0 -135.5 -24.5t-117 -72t-83 -125t-30.5 -175.5z" />
<glyph unicode="&#xf9;" horiz-adv-x="1259" d="M1094 0h-133l-23 106q-138 -120 -326 -120q-121 0 -224 51t-169.5 155t-66.5 242v602h159v-602q3 -95 52 -166.5t122 -105.5t158 -35q85 -2 162 31t131 98v780h158v-1036zM571 1219l-172 235h191l133 -235h-152z" />
<glyph unicode="&#xfa;" horiz-adv-x="1259" d="M1094 0h-133l-23 106q-138 -120 -326 -120q-121 0 -224 51t-169.5 155t-66.5 242v602h159v-602q3 -95 52 -166.5t122 -105.5t158 -35q85 -2 162 31t131 98v780h158v-1036zM842 1448l-172 -236h-152l133 236h191z" />
<glyph unicode="&#xfb;" horiz-adv-x="1259" d="M1094 0h-133l-23 106q-138 -120 -326 -120q-121 0 -224 51t-169.5 155t-66.5 242v602h159v-602q3 -95 52 -166.5t122 -105.5t158 -35q85 -2 162 31t131 98v780h158v-1036zM354 1221l181 239h206l181 -239h-152l-131 165h-4l-129 -165h-152z" />
<glyph unicode="&#xfc;" horiz-adv-x="1259" d="M1094 0h-133l-23 106q-138 -120 -326 -120q-121 0 -224 51t-169.5 155t-66.5 242v602h159v-602q3 -95 52 -166.5t122 -105.5t158 -35q85 -2 162 31t131 98v780h158v-1036zM532 1270h-180v164h180v-164zM881 1270h-183v164h183v-164z" />
<glyph unicode="&#xfd;" horiz-adv-x="1032" d="M182 -389v133q87 -10 131.5 17.5t67.5 84.5l57 150l-424 1042h172l336 -860l320 860h172l-482 -1243q-78 -209 -350 -184zM756 1440l-172 -236h-152l133 236h191z" />
<glyph unicode="&#xfe;" horiz-adv-x="1175" d="M166 -399v1831h153v-490q40 47 105.5 77.5t132.5 31.5q244 7 381 -139t137 -398q0 -114 -40 -213.5t-107.5 -167.5t-157.5 -107t-188 -38q-157 0 -263 71v-458h-153zM594 125q157 15 243.5 121.5t86.5 273.5q0 96 -29.5 172t-80 122t-113 69.5t-132.5 21.5 q-138 -3 -250 -112v-568q108 -120 275 -100z" />
<glyph unicode="&#xff;" horiz-adv-x="1032" d="M182 -389v133q87 -10 131.5 17.5t67.5 84.5l57 150l-424 1042h172l336 -860l320 860h172l-482 -1243q-78 -209 -350 -184zM430 1280h-186v160h186v-160zM788 1280h-186v160h186v-160z" />
<glyph unicode="&#x192;" horiz-adv-x="1150" d="M1061 1458l-25 -147q-59 5 -104.5 -11.5t-73 -43.5t-48.5 -74t-31.5 -86.5t-20.5 -96.5h221l-27 -155h-221l-180 -944q-15 -79 -43 -138t-75.5 -106.5t-121.5 -72.5t-172 -25q-62 0 -102 12l22 133q64 -12 113.5 -6t83.5 20.5t59 46.5t40 70.5t26 93.5l176 916h-195 l29 155h197l12 66q15 81 49 151t86 125.5t127 88t164 32.5q15 0 35 -4z" />
<glyph unicode="&#x2c6;" horiz-adv-x="1042" d="M240 1563l180 239h207l180 -239h-152l-131 166h-4l-129 -166h-151z" />
<glyph unicode="&#x2da;" horiz-adv-x="1044" d="M522 1522q-72 0 -122 41.5t-50 109.5q0 70 50 112t122 42q71 0 121.5 -42.5t50.5 -111.5q0 -68 -50.5 -109.5t-121.5 -41.5zM522 1608q30 0 49 18t19 47q0 32 -19 51t-49 19q-31 0 -49 -19t-18 -51q0 -29 18 -47t49 -18z" />
<glyph unicode="&#x2dc;" horiz-adv-x="1003" d="M735 1757l92 -67q-47 -106 -145.5 -133.5t-194.5 36.5q-127 81 -213 -51l-98 64q61 115 163 140.5t206 -46.5q110 -74 190 57z" />
<glyph unicode="&#x2000;" horiz-adv-x="932" />
<glyph unicode="&#x2001;" horiz-adv-x="1864" />
<glyph unicode="&#x2002;" horiz-adv-x="932" />
<glyph unicode="&#x2003;" horiz-adv-x="1864" />
<glyph unicode="&#x2004;" horiz-adv-x="621" />
<glyph unicode="&#x2005;" horiz-adv-x="466" />
<glyph unicode="&#x2006;" horiz-adv-x="310" />
<glyph unicode="&#x2007;" horiz-adv-x="310" />
<glyph unicode="&#x2008;" horiz-adv-x="233" />
<glyph unicode="&#x2009;" horiz-adv-x="28" />
<glyph unicode="&#x200a;" horiz-adv-x="103" />
<glyph unicode="&#x2010;" horiz-adv-x="937" d="M195 557v162h553v-162h-553z" />
<glyph unicode="&#x2011;" horiz-adv-x="937" d="M195 557v162h553v-162h-553z" />
<glyph unicode="&#x2012;" horiz-adv-x="937" d="M195 557v162h553v-162h-553z" />
<glyph unicode="&#x2013;" horiz-adv-x="1427" d="M195 504v158h1042v-158h-1042z" />
<glyph unicode="&#x2014;" horiz-adv-x="1775" d="M195 504v160h1409v-160h-1409z" />
<glyph unicode="&#x2018;" horiz-adv-x="485" d="M395 1468l-112 -432h-183l160 432h135z" />
<glyph unicode="&#x2019;" horiz-adv-x="468" d="M100 1038l113 432h182l-159 -432h-136z" />
<glyph unicode="&#x201a;" horiz-adv-x="538" d="M55 -223l133 442h189l-168 -442h-154z" />
<glyph unicode="&#x201c;" horiz-adv-x="776" d="M395 1468l-112 -432h-183l160 432h135zM684 1468l-113 -432h-182l160 432h135z" />
<glyph unicode="&#x201d;" horiz-adv-x="747" d="M100 1038l113 432h178l-155 -432h-136zM391 1038l113 432h178l-156 -432h-135z" />
<glyph unicode="&#x201e;" horiz-adv-x="831" d="M55 -223l133 442h183l-168 -442h-148zM379 -223l133 442h180l-166 -442h-147z" />
<glyph unicode="&#x2020;" horiz-adv-x="878" d="M344 -102v995h-272v143h272v410h150v-410h284v-143h-284v-995h-150z" />
<glyph unicode="&#x2021;" horiz-adv-x="911" d="M106 350v135h275v412h-275v139h275v410h147v-410h283v-139h-283v-412h283v-135h-283v-452h-147v452h-275z" />
<glyph unicode="&#x2022;" horiz-adv-x="835" d="M432 322q-116 0 -195 79t-79 195t79 195t195 79q114 0 193.5 -79.5t79.5 -194.5t-79.5 -194.5t-193.5 -79.5z" />
<glyph unicode="&#x2026;" horiz-adv-x="1456" d="M371 -4h-205v223h205v-223zM809 -4h-205v223h205v-223zM1262 -4h-205v223h205v-223z" />
<glyph unicode="&#x202f;" horiz-adv-x="372" />
<glyph unicode="&#x2030;" horiz-adv-x="2508" d="M809 1110q0 -144 -103.5 -246t-248.5 -102t-249 102t-104 246q0 146 104 248t249 102t248.5 -102t103.5 -248zM1618 324q0 -144 -103.5 -246.5t-248.5 -102.5q-146 0 -250.5 102t-104.5 247q0 144 104 246t251 102q145 0 248.5 -102t103.5 -246zM1470 324q0 90 -59 154.5 t-145 64.5q-87 0 -147 -64.5t-60 -154.5t60 -152.5t147 -62.5q86 0 145 62.5t59 152.5zM1227 1520h194l-929 -1596h-193zM2415 324q0 -144 -104 -246.5t-249 -102.5q-146 0 -250 102t-104 247t104 246.5t250 101.5q145 0 249 -102t104 -246zM2265 324q0 90 -59.5 154.5 t-145.5 64.5q-87 0 -147 -64.5t-60 -154.5t60 -152.5t147 -62.5q86 0 145.5 62.5t59.5 152.5zM659 1108q0 90 -59 154.5t-145 64.5q-87 0 -147 -64.5t-60 -154.5t60 -152.5t147 -62.5q86 0 145 62.5t59 152.5z" />
<glyph unicode="&#x2039;" horiz-adv-x="722" d="M436 158l-336 420l336 421h193l-336 -421l336 -420h-193z" />
<glyph unicode="&#x203a;" horiz-adv-x="729" d="M106 158l330 420l-334 421h191l336 -421l-336 -420h-187z" />
<glyph unicode="&#x2044;" horiz-adv-x="364" d="M-135 -96h-148l744 1558h147z" />
<glyph unicode="&#x205f;" horiz-adv-x="466" />
<glyph unicode="&#x2070;" horiz-adv-x="897" d="M213 1186q0 -63 26 -112t67.5 -74.5t91.5 -37.5t100.5 0t92 37.5t67.5 74.5t26 112v250q0 62 -26 111.5t-67.5 75t-92 37.5t-100.5 0.5t-91.5 -37t-67.5 -75t-26 -112.5v-250zM76 1436q0 84 32 152t84.5 110t119.5 64.5t136.5 22.5t136.5 -22.5t119.5 -64.5t84.5 -110 t32 -152v-250q0 -147 -98 -242q-115 -108 -274.5 -109t-274.5 109q-98 95 -98 242v250z" />
<glyph unicode="&#x2074;" horiz-adv-x="823" d="M662 1761v-618h79v-125h-79v-164h-150v164h-387l-90 108l479 635h148zM207 1145l305 -2l2 416z" />
<glyph unicode="&#x2075;" horiz-adv-x="897" d="M735 1636h-413l-33 -209q265 77 411 -51q101 -93 101 -223q0 -127 -92 -219q-103 -100 -273 -100q-108 0 -203 49t-143 139l-6 14l123 56l6 -13q28 -56 93 -88.5t132 -32.5q55 -8 102.5 11t75.5 57t40 83t-1.5 93t-50.5 82q-43 38 -117 47.5t-129 -4.5q-77 -12 -145 -47 l-2 -2l-84 -4l82 491h526v-129z" />
<glyph unicode="&#x2076;" horiz-adv-x="880" d="M610 1774l-225 -328q75 27 149 15t132.5 -48t94.5 -101t36 -143q0 -127 -90 -217q-98 -98 -263 -98q-164 0 -262 98q-90 90 -90 217q0 96 58 179l294 426h166zM444 1352q-84 0 -147.5 -50t-63.5 -131q0 -87 62 -144.5t149 -57.5q83 0 147 59.5t64 142.5 q-1 84 -63.5 132.5t-147.5 48.5z" />
<glyph unicode="&#x2077;" horiz-adv-x="741" d="M106 852l408 778h-408v131h539l47 -84l-430 -825h-156z" />
<glyph unicode="&#x2078;" horiz-adv-x="835" d="M207 1339q-82 65 -82 183q0 119 84 185.5t205 66.5q123 0 207 -66.5t84 -185.5q0 -118 -82 -183q120 -81 120 -225q-1 -129 -98.5 -207t-230.5 -78q-85 0 -158.5 33t-121 99t-48.5 153q-3 142 121 225zM414 1649q-65 0 -106.5 -32t-41.5 -95q0 -127 148 -127 q149 0 149 127q0 63 -41 95t-108 32zM414 1282q-81 0 -135 -43t-54 -123q0 -73 57 -117.5t132 -44.5q76 0 132 44.5t56 117.5q0 80 -53.5 123t-134.5 43z" />
<glyph unicode="&#x2079;" horiz-adv-x="872" d="M279 858l225 328q-75 -27 -149 -15t-132.5 47.5t-94.5 100.5t-36 143q0 127 90 217q99 99 262 99q164 0 263 -99q90 -90 90 -217q0 -95 -58 -178l-295 -426h-165zM444 1280q84 0 147.5 49.5t63.5 130.5q0 87 -62 145t-149 58q-83 0 -147 -60t-64 -143q1 -84 63.5 -132 t147.5 -48z" />
<glyph unicode="&#x2080;" horiz-adv-x="884" d="M213 2q0 -63 26 -112t67.5 -74.5t91.5 -37.5t100.5 0t92 37.5t67.5 74.5t26 112v250q0 62 -26 111.5t-67.5 75t-92 37.5t-100.5 0.5t-91.5 -37t-67.5 -75t-26 -112.5v-250zM76 252q0 84 32 152t84.5 110t119.5 64.5t136.5 22.5t136.5 -22.5t119.5 -64.5t84.5 -110 t32 -152v-250q0 -147 -98 -242q-115 -108 -274.5 -109t-274.5 109q-98 95 -98 242v250z" />
<glyph unicode="&#x2081;" horiz-adv-x="591" d="M266 -322v752h-131v133h19h245h19v-885h-152z" />
<glyph unicode="&#x2082;" horiz-adv-x="849" d="M639 104l-340 -301h453v-131h-629l-45 99l459 432q87 87 65 162q-14 50 -64.5 74t-109.5 26q-68 3 -123.5 -24t-83.5 -85l-129 54q30 70 92 120q47 39 113 58q68 19 133 16q108 -3 195.5 -55.5t115.5 -149.5q23 -77 -7 -155t-95 -140z" />
<glyph unicode="&#x2083;" horiz-adv-x="827" d="M606 160q137 -71 137 -228q-1 -88 -51.5 -154.5t-126.5 -98t-162 -31.5q-106 0 -197.5 50t-135.5 142l120 58q31 -56 91.5 -87.5t126.5 -31.5q73 0 128.5 42t55.5 113q0 67 -50 111.5t-118 44.5h-92v123h92q61 0 101 29t40 88q0 62 -46 95.5t-111 33.5q-56 0 -109 -27 t-78 -74l-117 62q40 80 122 125t175 45q60 0 115.5 -17t101 -48.5t72.5 -82t27 -112.5q0 -54 -31 -101t-80 -69z" />
<glyph unicode="&#x2084;" horiz-adv-x="796" d="M662 586v-619h79v-125h-79v-164h-150v164h-387l-90 109l479 635h148zM207 -31l305 -2l2 416z" />
<glyph unicode="&#x2085;" horiz-adv-x="876" d="M735 455h-413l-33 -209q265 77 411 -51q101 -93 101 -224q0 -127 -92 -219q-103 -100 -273 -100q-108 0 -203 49t-143 139l-6 15l123 55l6 -12q28 -56 93 -88.5t132 -32.5q55 -8 102.5 11t75.5 57t40 82.5t-1.5 92.5t-50.5 82q-43 38 -117 47.5t-129 -4.5 q-77 -12 -145 -47l-2 -2l-84 -4l82 492h526v-129z" />
<glyph unicode="&#x2086;" horiz-adv-x="876" d="M610 580l-225 -328q75 27 149 15t132.5 -48t94.5 -101t36 -143q0 -127 -90 -217q-98 -98 -263 -98q-164 0 -262 98q-90 90 -90 217q0 96 58 179l294 426h166zM444 158q-84 0 -147.5 -50t-63.5 -131q0 -87 62 -144.5t149 -57.5q83 0 147 59.5t64 142.5q-1 84 -63.5 132.5 t-147.5 48.5z" />
<glyph unicode="&#x2087;" horiz-adv-x="745" d="M106 -344l408 778h-426v131h557l47 -84l-430 -825h-156z" />
<glyph unicode="&#x2088;" horiz-adv-x="817" d="M207 162q-82 65 -82 182q0 119 84 185.5t205 66.5q123 0 207 -66.5t84 -185.5q0 -117 -82 -182q120 -81 120 -225q-1 -129 -98.5 -207t-230.5 -78q-85 0 -158.5 33t-121 99t-48.5 153q-3 142 121 225zM414 471q-65 0 -106.5 -32t-41.5 -95q0 -127 148 -127q149 0 149 127 q0 63 -41 95t-108 32zM414 104q-81 0 -135 -43t-54 -122q0 -73 57 -117.5t132 -44.5q76 0 132 44.5t56 117.5q0 80 -53.5 122.5t-134.5 42.5z" />
<glyph unicode="&#x2089;" horiz-adv-x="862" d="M279 -324l225 328q-75 -27 -149 -15t-132.5 48t-94.5 101t-36 143q0 127 90 217q98 98 262 98q165 0 263 -98q90 -90 90 -217q0 -96 -58 -179l-295 -426h-165zM444 98q84 0 147.5 50t63.5 131q0 87 -62 144.5t-149 57.5q-83 0 -147 -59.5t-64 -142.5q1 -84 63.5 -132.5 t147.5 -48.5z" />
<glyph unicode="&#x20ac;" horiz-adv-x="1363" d="M100 915h119q28 113 87.5 210.5t146.5 174t209.5 120.5t265.5 44q165 0 309 -69l-68 -142q-112 56 -241 56q-203 -3 -340.5 -113t-192.5 -281h596l-28 -141h-594q-2 -18 -2 -57v-29h567l-27 -137h-520q23 -88 68.5 -163.5t112 -134.5t159.5 -92.5t201 -33.5q140 0 274 72 l76 -138q-164 -90 -350 -90q-148 0 -274 47t-214 128t-145.5 184t-81.5 221h-150l31 137h103q-2 8 -2 29q0 9 1 28.5t1 28.5h-125z" />
<glyph unicode="&#x2122;" horiz-adv-x="1810" d="M655 1305h-227v-650h-139v650h-228v125h594v-125zM1174 754l-246 454l4 -553h-141v772h153l285 -503l291 503h147v-772h-141l6 553l-246 -454h-112z" />
<glyph unicode="&#x25fc;" horiz-adv-x="1044" d="M0 1044h1044v-1044h-1044v1044z" />
<glyph horiz-adv-x="1253" d="M305 406q0 -126 96.5 -201.5t225.5 -75.5q82 0 153.5 31.5t118.5 96.5t47 149v628q0 85 -49 149.5t-123 95.5t-156 30t-152 -32.5t-115.5 -95t-45.5 -147.5v-628zM137 1034q0 102 40.5 185t108.5 135t152.5 79.5t177.5 28.5q75 1 147 -15t135.5 -50.5t111.5 -84.5 t76 -121.5t28 -156.5v-628q0 -183 -121 -297q-68 -65 -164.5 -99.5t-201.5 -34.5q-105 -2 -203.5 33t-167.5 101q-119 116 -119 297v628z" />
<glyph horiz-adv-x="679" d="M307 1276h-188v160h356v-1436h-168v1276z" />
<glyph horiz-adv-x="1159" d="M584 1296q-112 4 -196.5 -47.5t-125.5 -150.5l-139 65q59 149 182.5 226.5t282.5 72.5q196 -7 316.5 -125t123.5 -282q0 -177 -156 -350l-503 -551h669v-154h-878l-49 123l647 700q115 121 112 230q0 100 -77 169.5t-209 73.5z" />
<glyph horiz-adv-x="1146" d="M90 272l127 70q48 -98 142 -154.5t196 -56.5q115 0 204 77t89 208q0 125 -79 204.5t-191 79.5h-115v150h115q104 0 168.5 52.5t64.5 160.5q0 114 -74.5 177t-179.5 63q-89 0 -172 -47t-123 -130l-121 72q54 123 166.5 191.5t239.5 68.5q63 0 124.5 -15t117 -47.5t98 -78 t67.5 -111.5t25 -143q0 -90 -43.5 -168t-116.5 -111q197 -107 197 -370q-1 -102 -41.5 -187t-106.5 -139t-148.5 -83.5t-170.5 -29.5q-93 0 -181 32.5t-162.5 101t-115.5 163.5z" />
<glyph horiz-adv-x="1120" d="M909 1436v-1008h115v-156h-115v-272h-168v272h-575l-111 150l678 1014h176zM741 428l4 768l-491 -766z" />
<glyph horiz-adv-x="1189" d="M102 272l138 70q44 -93 142.5 -149t201.5 -56q80 0 145 29t105 77t61 107.5t20 122.5q0 84 -34.5 155t-110 118t-180.5 47q-103 0 -181.5 -17t-158.5 -63l-90 -4l110 725h717v-160h-579l-60 -371q116 45 246 45q96 -1 176.5 -28t137 -73t96 -106.5t58.5 -129t19 -140.5 q0 -93 -32.5 -180t-93 -157t-158 -112t-217.5 -42q-152 0 -282.5 75.5t-195.5 216.5z" />
<glyph horiz-adv-x="1232" d="M627 -20q-119 0 -215.5 42t-157 112t-93 157t-32.5 180q0 147 82 277l426 686h194l-305 -494q62 8 101 8q100 0 183.5 -27t140.5 -72.5t96.5 -107t58 -129.5t18.5 -141q0 -74 -19.5 -144.5t-60.5 -133.5t-99 -110.5t-140 -75t-178 -27.5zM627 793q-140 0 -235.5 -90.5 t-96.5 -229.5q0 -63 21.5 -122.5t62 -107.5t105 -77t143.5 -29q80 0 145 29t105 77t61 107.5t20 122.5q0 84 -36 155t-113 118t-182 47z" />
<glyph horiz-adv-x="1024" d="M772 1274h-690v164h846l55 -115l-690 -1323h-191z" />
<glyph horiz-adv-x="1202" d="M596 -29q-89 0 -171.5 29.5t-149 84t-107 140t-41.5 189.5q-1 118 51.5 209.5t147.5 152.5q-71 51 -106.5 128.5t-35.5 168.5t35 166t93.5 122.5t131.5 73t152 25.5q80 0 153 -25.5t131 -73t93 -122.5t35 -166q0 -88 -35 -167.5t-105 -129.5q95 -61 147.5 -152.5 t51.5 -209.5q-1 -138 -70.5 -241t-174.5 -152.5t-226 -49.5zM596 1305q-78 0 -135 -34t-82 -85t-24.5 -110.5t26.5 -110.5t82.5 -85t132.5 -34q77 0 134 34t83 85t26.5 110.5t-24.5 110.5t-82.5 85t-136.5 34zM596 702q-64 0 -118 -20t-88.5 -53.5t-59 -76.5t-30 -91 t-0.5 -96t29.5 -91t59 -76t88.5 -52.5t119 -18.5q66 1 121 21t90.5 53.5t60 76.5t30 90.5t0 95t-30.5 90.5t-60.5 76t-90.5 52.5t-120 19.5z" />
<glyph horiz-adv-x="1239" d="M612 1452q119 0 215.5 -42t157 -112t93 -157t32.5 -180q0 -147 -82 -277l-426 -686h-194l305 494q-70 -9 -101 -9q-124 0 -222 41t-156.5 109.5t-88.5 152t-30 175.5q0 74 19.5 144.5t60.5 133.5t99 110.5t140 75t178 27.5zM612 639q140 0 235.5 90t96.5 229 q0 63 -21.5 122.5t-62 107.5t-105 77t-143.5 29q-80 0 -145 -29t-105 -77t-61 -107.5t-20 -122.5q0 -62 21.5 -118.5t61.5 -101.5t104.5 -72t143.5 -27z" />
<glyph horiz-adv-x="1251" d="M297 406q0 -126 99.5 -205.5t228.5 -79.5q127 0 226 79.5t99 205.5v307q0 85 -50.5 152t-126 100t-157.5 32q-127 -2 -223 -80.5t-96 -203.5v-307zM135 713q0 102 40.5 185t108.5 135t152.5 79.5t177.5 28.5q75 1 147 -15t135.5 -50.5t111.5 -84.5t76 -121.5t28 -156.5 v-307q0 -183 -121 -297q-68 -65 -164.5 -99.5t-201.5 -34.5q-105 -2 -203.5 33t-167.5 101q-119 116 -119 297v307z" />
<glyph horiz-adv-x="630" d="M260 0v920h-162v153h326h2v-1073h-166z" />
<glyph horiz-adv-x="1073" d="M805 522l-436 -377h573v-145h-760l-55 119l563 516q112 112 84 203q-17 61 -86.5 100t-136.5 41q-80 3 -157 -38.5t-111 -111.5l-140 62q46 115 163 179.5t247 55.5q84 -2 159 -28t135 -82.5t83 -136.5q28 -93 -9 -188t-116 -169z" />
<glyph horiz-adv-x="1081" d="M49 8l127 68q48 -93 141 -147t195 -54q73 0 138 30t109 93t44 147q0 118 -78.5 193.5t-189.5 75.5h-115v143h115q104 0 167.5 49.5t63.5 151.5q0 108 -73.5 167.5t-178.5 59.5q-89 0 -171 -44t-122 -122l-121 68q54 116 166 181t238 65q63 0 124 -14.5t116.5 -45 t97.5 -74t67 -106t25 -135.5q0 -86 -43.5 -159t-116.5 -105q197 -101 197 -351q-1 -97 -41 -177.5t-106 -131.5t-148 -78.5t-170 -27.5q-144 0 -270 73t-187 207z" />
<glyph horiz-adv-x="1138" d="M924 1096v-881h114v-147h-114v-267h-168v267h-576l-110 149l678 879h176zM760 215l4 653l-506 -653h502z" />
<glyph horiz-adv-x="1105" d="M74 25l131 63q41 -85 134 -133.5t193 -48.5t174 44.5t108.5 113t33.5 147.5q0 78 -33 144.5t-105 110.5t-171 44q-184 0 -324 -78l-86 -4l104 655h682v-147h-550l-58 -328q123 47 234 47q113 -1 204 -40t146.5 -102.5t85 -141.5t29.5 -162q0 -68 -19 -133.5t-59 -124 t-95.5 -102.5t-134 -69.5t-170.5 -25.5q-144 0 -268 70.5t-186 200.5z" />
<glyph horiz-adv-x="1216" d="M631 -27q-119 0 -215.5 42.5t-157 112.5t-93 157t-32.5 180q0 146 82 276l426 693h186l-321 -535q138 53 252 27.5t196.5 -100.5t128 -172t45.5 -189q0 -74 -19.5 -145t-60.5 -134t-99 -110.5t-140 -75t-178 -27.5zM631 786q-92 0 -169 -40t-123.5 -113.5t-47.5 -165.5 q0 -63 23 -124t64.5 -111t107.5 -80.5t145 -30.5q105 0 184.5 52.5t117 130t36.5 163.5q0 130 -91 224.5t-247 94.5z" />
<glyph horiz-adv-x="1058" d="M770 954h-664v158h809l54 -111l-662 -1265h-172z" />
<glyph horiz-adv-x="1155" d="M578 -29q-85 0 -164 28.5t-142 80t-101.5 133t-39.5 180.5q-3 223 188 344q-135 98 -135 285q0 87 33.5 158t89.5 116t126 69t145 24q102 0 190 -40.5t145.5 -126t57.5 -200.5q0 -85 -33 -160.5t-100 -124.5q191 -121 188 -344q-1 -99 -39 -180.5t-101.5 -133t-143 -80 t-164.5 -28.5zM578 1241q-56 0 -101.5 -18.5t-73 -49.5t-42 -70t-14 -80t15.5 -80t43 -70t72.5 -49.5t99.5 -18.5q63 0 112.5 24t75.5 62.5t38.5 85t1 93t-37 85t-76 62.5t-114.5 24zM578 668q-61 0 -112.5 -19t-84.5 -50.5t-56.5 -73t-28.5 -87t-0.5 -91t28 -86.5 t56.5 -72.5t84.5 -50t113.5 -17.5q111 1 186.5 58t93 137t0 160t-93.5 136t-186 56z" />
<glyph horiz-adv-x="1167" d="M580 1155q119 0 215.5 -42t156.5 -112t92.5 -157t32.5 -180q0 -147 -82 -277l-426 -692h-186l322 534q-138 -53 -252.5 -27.5t-197 100.5t-128 173t-45.5 189q0 93 32 180t92.5 157t157.5 112t216 42zM580 342q140 0 239.5 90.5t100.5 229.5q0 63 -23 124t-64.5 111 t-107.5 80.5t-145 30.5q-105 0 -184.5 -52.5t-117 -130t-36.5 -163.5q0 -130 91 -225t247 -95z" />
<glyph horiz-adv-x="1150" d="M307 883q-3 -41 14.5 -74t36.5 -51.5t66 -37t66.5 -23.5t74.5 -17q17 -4 25 -6q73 -16 129.5 -33.5t117.5 -49.5t99.5 -72.5t62 -102t19.5 -137.5q-4 -71 -37 -129t-86.5 -96t-118 -61.5t-137.5 -31.5v-156h-147v156q-127 16 -230.5 81t-152.5 173l131 59 q39 -85 126.5 -132.5t196.5 -47.5q129 -2 207.5 47.5t85.5 145.5q2 29 -3 54.5t-14 45t-27.5 37.5t-33.5 30t-42.5 24.5t-44.5 19.5t-49.5 16t-47 12t-47.5 11q-47 11 -83 21t-80.5 27t-77.5 35.5t-65.5 45.5t-53 58.5t-32.5 74t-10 92.5q2 69 31 127t77.5 97.5t109 64.5 t129.5 34v156h147v-153q119 -16 214 -77t136 -159l-127 -53q-38 75 -118 114t-173 41q-68 0 -124 -19t-95.5 -65.5t-44.5 -115.5z" />
<glyph d="M594 2v174q-114 10 -206 58.5t-149 123t-87.5 165t-30.5 188.5q1 97 32 187.5t88.5 165.5t149 124.5t203.5 60.5v185h125v-185q171 -18 295 -139l-88 -109q-113 107 -277 107q-71 1 -137.5 -28t-117 -80t-81.5 -127.5t-32 -165.5q0 -73 23.5 -141.5t68 -124.5t117 -90 t161.5 -34q77 0 151 30.5t132 84.5l90 -108q-128 -125 -305 -146v-176h-125z" />
<glyph horiz-adv-x="1208" d="M1112 877l-156 -31q-15 78 -62 134.5t-107.5 81.5t-127.5 23t-122.5 -31t-92 -91t-36.5 -146v-215h450v-127h-450v-328h714v-147h-997v147h117v328h-113v127h113v215q0 98 33 179t88 132.5t126.5 82t147.5 35t153 -17t141.5 -65.5t113 -118t67.5 -168z" />
<glyph horiz-adv-x="1202" d="M1151 1188l-334 -524h174v-123h-243l-72 -129v4h315v-123h-315v-293h-168v293h-313v123h313v-4l-72 129h-241v123h172l-328 524h194l361 -627l362 627h195z" />
<glyph horiz-adv-x="1120" d="M1020 1229l-25 -148q-59 5 -104.5 -11t-73 -43.5t-48.5 -74t-31.5 -86t-20.5 -96.5h221l-27 -156h-221l-139 -714q-15 -79 -43 -138t-75.5 -106.5t-121.5 -72.5t-172 -25q-62 0 -102 12l22 133q64 -12 113.5 -6t83.5 20.5t59 46.5t40 70.5t26 93.5l135 686h-194l28 156 h197l12 66q15 81 49 151t86 125.5t127 88t164 32.5q15 0 35 -4z" />
<glyph horiz-adv-x="1316" d="M100 821h119q57 229 240 363.5t469 134.5q163 0 309 -70l-68 -141q-110 55 -241 55q-211 -3 -346 -91.5t-187 -250.5h596l-28 -141h-594q-2 -10 -2 -64h567l-27 -137h-520q44 -172 181.5 -262t359.5 -90q140 0 274 72l76 -138q-164 -90 -350 -90q-300 0 -483.5 135.5 t-231.5 372.5h-150l31 137h103q-2 9 -2 20t1 24t1 20h-125z" />
<glyph horiz-adv-x="892" d="M213 864q0 -72 34.5 -125.5t86.5 -77.5t112.5 -24t112.5 24t86.5 77.5t34.5 125.5v250q0 72 -34.5 125.5t-86.5 78t-112.5 24.5t-112.5 -23.5t-86.5 -77.5t-34.5 -127v-250zM76 1114q0 84 32 152t84 110t118.5 64.5t136 22.5t136 -22.5t118.5 -64.5t84 -110t32 -152v-250 q0 -81 -32.5 -149t-85.5 -111t-121.5 -66t-139 -22t-141 28t-123.5 79q-98 95 -98 241v250z" />
<glyph horiz-adv-x="610" d="M236 563v752h-132v133h19h246h18v-885h-151z" />
<glyph horiz-adv-x="847" d="M627 963l-340 -301h452v-132h-628l-45 99l458 432q88 88 66 162q-14 50 -64.5 74t-109.5 26q-68 3 -123.5 -24t-83.5 -85l-129 54q30 71 92 121q46 37 113 57q68 19 133 16q108 -3 195.5 -55.5t115.5 -149.5q23 -77 -7 -154.5t-95 -139.5z" />
<glyph horiz-adv-x="827" d="M606 1034q137 -71 137 -227q-1 -88 -51.5 -154.5t-126.5 -98.5t-162 -32q-106 0 -197.5 50.5t-135.5 142.5l120 57q31 -56 91.5 -87.5t126.5 -31.5q73 0 128.5 42.5t55.5 113.5q0 67 -50 111.5t-118 44.5h-92v122h92q61 0 101 29t40 88q0 62 -46 95.5t-111 33.5 q-56 0 -109 -26.5t-78 -73.5l-117 61q40 80 122 125t175 45q60 0 115.5 -17t101 -48.5t72.5 -82t27 -112.5q0 -54 -31 -101t-80 -69z" />
<glyph horiz-adv-x="823" d="M662 1450v-619h79v-124h-79v-164h-150v164h-387l-90 108l479 635h148zM201 836l311 -5l2 416z" />
<glyph horiz-adv-x="897" d="M735 1305h-413l-33 -209q264 77 411 -52q101 -93 101 -223q0 -127 -92 -219q-103 -100 -273 -100q-108 0 -203 49t-143 139l-6 15l123 55l6 -12q28 -56 93 -88.5t132 -32.5q55 -8 102.5 11t75.5 57t40 82.5t-1.5 92.5t-50.5 82q-43 38 -117 47.5t-129 -4.5 q-77 -12 -145 -47l-2 -2l-84 -4l82 492h526v-129z" />
<glyph horiz-adv-x="880" d="M610 1434l-225 -328q75 27 149 15t132.5 -48t94.5 -101t36 -143q0 -127 -90 -217q-98 -98 -263 -98q-164 0 -262 98q-90 90 -90 217q0 96 58 179l294 426h166zM444 1012q-84 0 -147.5 -50t-63.5 -131q0 -87 62 -144.5t149 -57.5q83 0 147 59.5t64 142.5 q-1 84 -63.5 132.5t-147.5 48.5z" />
<glyph horiz-adv-x="757" d="M106 526l408 779h-408v131h539l47 -84l-430 -826h-156z" />
<glyph horiz-adv-x="835" d="M207 1022q-82 65 -82 182q0 119 84 185.5t205 66.5q123 0 207 -66.5t84 -185.5q0 -117 -82 -182q120 -81 120 -225q-1 -129 -98.5 -207t-230.5 -78q-85 0 -158.5 33t-121 99t-48.5 153q-3 142 121 225zM414 1331q-65 0 -106.5 -32t-41.5 -95q0 -127 148 -127 q149 0 149 127q0 63 -41 95t-108 32zM414 965q-81 0 -135 -43t-54 -123q0 -73 57 -117.5t132 -44.5q76 0 132 44.5t56 117.5q0 80 -53.5 123t-134.5 43z" />
<glyph horiz-adv-x="872" d="M279 532l225 328q-75 -27 -149 -15t-132.5 48t-94.5 101t-36 143q0 127 90 217q98 98 262 98q165 0 263 -98q90 -90 90 -217q0 -96 -58 -179l-295 -426h-165zM444 954q84 0 147.5 50t63.5 131q0 87 -62 144.5t-149 57.5q-83 0 -147 -59.5t-64 -142.5q1 -84 63.5 -132.5 t147.5 -48.5z" />
<glyph horiz-adv-x="901" d="M225 324q0 -73 34.5 -126.5t85.5 -77.5t111.5 -24t111.5 24t85.5 77.5t34.5 126.5v249q0 62 -25.5 111.5t-66.5 75t-90 37.5t-98.5 0.5t-90.5 -37t-66.5 -75t-25.5 -112.5v-249zM88 573q0 84 31.5 152t83.5 110t118 64.5t135.5 22.5t135.5 -22.5t118 -64.5t83.5 -110 t31.5 -152v-249q0 -83 -31.5 -150.5t-83.5 -108.5t-118 -63.5t-135.5 -22t-135.5 23t-118 63.5t-83.5 108t-31.5 150v249z" />
<glyph horiz-adv-x="610" d="M236 -2v752h-132v133h19h246h18v-885h-151z" />
<glyph horiz-adv-x="849" d="M627 434l-340 -301h452v-131h-628l-45 98l458 432q88 88 66 162q-14 51 -64.5 75t-109.5 26q-68 3 -123.5 -24t-83.5 -85l-129 53q30 71 92 121q47 39 113 58q68 19 133 16q108 -3 195.5 -55.5t115.5 -149.5q23 -77 -7 -155t-95 -140z" />
<glyph horiz-adv-x="827" d="M606 489q137 -71 137 -227q-1 -88 -51.5 -154.5t-126.5 -98.5t-162 -32q-106 0 -197.5 50.5t-135.5 142.5l120 57q31 -55 91 -86.5t127 -31.5q73 0 128.5 42t55.5 113q0 67 -50 111.5t-118 44.5h-92v123h92q61 0 101 28.5t40 87.5q0 62 -46 95.5t-111 33.5 q-56 0 -109 -26.5t-78 -73.5l-117 62q40 80 122 125t175 45q81 0 151.5 -28.5t117.5 -89.5t47 -143q0 -54 -31 -101t-80 -69z" />
<glyph horiz-adv-x="823" d="M662 907v-612h79v-131h-79v-164h-150v164h-387l-90 108l479 635h148zM215 297l297 -2l2 410z" />
<glyph horiz-adv-x="897" d="M735 782h-413l-33 -209q265 77 411 -51q101 -93 101 -223q0 -127 -92 -219q-103 -100 -273 -100q-108 0 -203 49t-143 139l-6 14l123 56l6 -13q28 -56 93 -88.5t132 -32.5q55 -8 102.5 11t75.5 57t40 83t-1.5 93t-50.5 82q-43 38 -117 47.5t-129 -4.5q-77 -12 -145 -47 l-2 -2l-84 -4l82 491h526v-129z" />
<glyph horiz-adv-x="878" d="M610 897l-225 -328q75 27 149 15t132.5 -47.5t94.5 -100.5t36 -143q0 -127 -90 -217q-99 -99 -263 -99q-163 0 -262 99q-90 90 -90 217q0 95 58 178l294 426h166zM444 475q-84 0 -147.5 -49.5t-63.5 -130.5q0 -87 62 -145t149 -58q83 0 147 60t64 143q-1 84 -63.5 132 t-147.5 48z" />
<glyph horiz-adv-x="757" d="M106 0l408 778h-408v131h539l47 -84l-430 -825h-156z" />
<glyph horiz-adv-x="835" d="M207 496q-82 65 -82 182q0 119 84 185.5t205 66.5q123 0 207 -66.5t84 -185.5q0 -117 -82 -182q120 -81 120 -226q-1 -87 -48.5 -153t-121 -98.5t-159.5 -32.5q-85 0 -158 32.5t-121 98.5t-49 153q-1 70 31 128.5t90 97.5zM414 805q-65 0 -106.5 -32t-41.5 -95 q0 -127 148 -127q149 0 149 127q0 63 -41 95t-108 32zM414 438q-81 0 -135 -43t-54 -123q0 -73 57 -117t132 -44q76 0 132 44t56 117q0 80 -53.5 123t-134.5 43z" />
<glyph horiz-adv-x="868" d="M279 0l225 328q-75 -27 -149 -15t-132.5 47.5t-94.5 100.5t-36 143q0 127 90 217q99 99 262 99q164 0 263 -99q90 -90 90 -217q0 -95 -58 -178l-295 -426h-165zM444 422q84 0 147.5 49.5t63.5 130.5q0 87 -62 145t-149 58q-83 0 -147 -60t-64 -143q1 -84 63.5 -132 t147.5 -48z" />
</font>
</defs>
</svg>
